<?xml version="1.0" encoding="UTF-8"?>
<svg id="Layer_2" data-name="Layer 2" xmlns="http://www.w3.org/2000/svg" viewBox="0 0 741.51 916.6">
  <defs>
    <style>
      .cls-1 {
        fill: #292929;
      }

      .cls-1, .cls-2, .cls-3, .cls-4, .cls-5, .cls-6, .cls-7, .cls-8, .cls-9, .cls-10, .cls-11, .cls-12, .cls-13, .cls-14, .cls-15, .cls-16, .cls-17, .cls-18 {
        stroke-width: 0px;
      }

      .cls-2 {
        fill: #000;
      }

      .cls-3 {
        fill: #65b8dc;
      }

      .cls-4 {
        fill: #a85d23;
      }

      .cls-5 {
        fill: #df0038;
      }

      .cls-6 {
        fill: #bf2000;
      }

      .cls-7 {
        fill: #3d3d3d;
      }

      .cls-8 {
        fill: #eed1bc;
      }

      .cls-9 {
        fill: #f48600;
      }

      .cls-10 {
        fill: #e6e6e6;
      }

      .cls-11 {
        fill: #ffcd29;
      }

      .cls-12 {
        fill: #8a1f00;
      }

      .cls-19, .cls-20, .cls-21 {
        font-family: Hey-Comic, 'Hey Comic';
        font-size: 167.13px;
      }

      .cls-19, .cls-15, .cls-21 {
        fill: #fff;
      }

      .cls-13 {
        fill: #ac3747;
      }

      .cls-20 {
        fill: none;
        stroke: #000;
        stroke-width: 10px;
      }

      .cls-20, .cls-21 {
        stroke-miterlimit: 10;
      }

      .cls-14 {
        fill: #323232;
      }

      .cls-16 {
        fill: #ececec;
      }

      .cls-21 {
        stroke: #810004;
        stroke-width: 3px;
      }

      .cls-17 {
        fill: #5559dc;
      }

      .cls-18 {
        fill: #eebba5;
      }
    </style>
  </defs>
  <g id="PauseScreen">
    <g>
      <g>
        <path class="cls-8" d="M389.2,626.76c-.29-.26-.66-.46-1.06-.44-.13.02-.27.04-.4.05-.25.07-.47.2-.66.39-.65.53-1.23,1.16-1.74,1.84-1.89,1.27-3.61,2.79-5.1,4.51-.6-.05-1.25.27-1.56,1.04-.31.77-.61,1.54-.9,2.32-.34.56-.66,1.13-.96,1.71-.2.19-.37.44-.48.71-.24.61-.45,1.23-.67,1.85-.72-.19-1.69.26-1.82,1.05-.51,2.94-.88,5.89-1.12,8.86-.33.93-.63,1.87-.87,2.82-.19.74.16,1.31.67,1.62-.33,1.76-.64,3.52-.91,5.3-.13.82-.26,1.65-.39,2.49-1.1,4.74-1.86,9.56-2.26,14.41-.46.16-.85.51-.93.99-.94,5.49-1.16,11.05-.62,16.58-.03.56.03,1.12.18,1.65,0,.01,0,.02,0,.04.04.33.15.63.33.88.13.28.27.55.45.79.39.53.8.94,1.33,1.33.29.22.82.24,1.16.15.35-.1.72-.36.9-.69.18-.34.27-.75.16-1.13.04-.12.07-.26.08-.39.38-.23.64-.62.61-1.21-.07-1.14-.12-2.28-.16-3.42.18-.22.31-.51.34-.86.33-4.5.78-8.98,1.33-13.45.14-.24.18-.54.11-.88.36-2.84.76-5.68,1.21-8.51.63-.11,1.15-.58,1.11-1.41-.77-13.37,3.48-26.86,11.94-37.27.17-.21.26-.44.31-.69.14-.22.21-.47.2-.72.07-.06.14-.13.21-.19.28-.23.44-.71.44-1.06,0-.37-.16-.81-.44-1.06Z"/>
        <path class="cls-8" d="M590.26,407.34c-1.57-6.55-4.4-12.7-6.21-19.18.69-11,.98-22.04,1.24-32.94.03-1.17-.11-2.26-.38-3.27-.26.14-.56.23-.92.23h-4.31c-2.85.42-5.72.69-8.6.81-.21.4-.58.73-1.15.89-4.5,1.25-9.24,1.45-13.88,1.28-4.35-.16-8.69-.66-13.02-1.14-4.39-.48-8.78-.64-13.18-.96-9.62-.71-19.2-2.08-28.55-4.48-.64-.16-1.03-.6-1.22-1.11-3.46-.32-6.91-.86-10.32-1.54-9.89-1.97-19.68-4.99-29.25-8.18-8.75-2.92-17.76-6.33-25.01-12.2-.14-.11-.24-.26-.33-.41-1.17-.32-2.34-.63-3.5-.96-1.46-1.03-3.08-1.7-4.75-2.02-.02-.05-.04-.1-.07-.15-.18-.56-.49-1.04-.93-1.45-.41-.44-.89-.75-1.45-.93-.54-.28-1.11-.41-1.73-.39l-1.2.16c-.29.08-.55.19-.81.32.51.77.44,1.75-.21,2.46-.69.75-2.05.74-2.74,0-.31-.33-.53-.67-.71-1.04-.12-.04-.22-.11-.33-.17-3.94.55-7.87,1.11-11.8,1.71-.92.56-1.85,1.11-2.76,1.68-.33.39-.76.71-1.15,1-.72.54-1.5.98-2.3,1.39-.99,2.96-1.66,6.04-2.84,8.94,0,.02,0,.03,0,.05,0,0,0,0,0,0-.06.16-.12.31-.19.47-.13.3-.36.52-.62.67-.52,1.35-1.16,2.63-1.96,3.78.04.55-.11,1.1-.55,1.44-1.82,1.42-3.77,2.61-5.79,3.69-2.33,1.64-4.9,2.9-7.58,3.64-2.46,1.14-4.92,2.3-7.37,3.46-3.24,1.54-6.54,3.03-9.97,4.09-2.51.77-5.31,1.39-7.96,1.04-2.79.48-5.61.78-8.46.8-.02,0-.04,0-.05,0-.15.01-.31.04-.46.05-.16,1.01-1.05,1.93-2.37,1.62-1.4-.32-2.77-.75-4.04-1.39-.71.02-1.42.05-2.14.12-1.33.14-2.62.45-3.83.91-.51-.27-1.02-.54-1.55-.78-11.27-5.1-24.41-2.76-31.9,6.18-2.93,1.34-5.2,3.91-6.35,7.3-.1.31-.19.61-.3.92-1.26,1.22-2.32,2.8-3.07,4.79-7.18,19.03-6.44,42.83,9.53,57.37,9.79,8.92,21.9,10.94,34.25,10.06-.16.91-.18,1.8-.1,2.69.21-.19.48-.35.82-.43,1.02-.26,2.03-.55,3.05-.83.59-.19,1.19-.37,1.81-.49.93-.19,1.66.23,2.06.85.38-.06.79,0,1.2.23,1.39.79,2.62,1.93,3.72,3.08,2.11,2.21,4.43,5.07,4.9,8.19.07.16.15.32.22.49.1.24.1.48.07.73.26.04.52.08.78.13,1.03.2,1.61,1.44,1.35,2.38-.29,1.07-1.36,1.55-2.38,1.35-.89-.17-1.81-.24-2.72-.26-.05.02-.1.02-.15.04,2.13,1.34,4.3,2.62,6.5,3.85.18.26.4.5.68.71,3.26,2.47,6.87,4.11,10.61,5.44.29.71.92,1.27,1.97,1.43,3.37.5,7.06,3.93,10.16,5.42,3.4,1.63,6.92,2.97,10.53,4.06.37.11.71.14,1.03.12.17.08.34.16.5.24,1.46.7,3.24.4,4.1-1.08.18-.31.3-.67.35-1.05.75.17,1.49.36,2.24.52,2.53.89,5.1,1.67,7.69,2.36,4.91,2.59,10.17,3.92,15.61,4.38-.49,6.94.65,14.33,2.1,21.18-5.14,1.3-10.34,2.4-15.59,3.28-1.56.26-2.68,1.75-3.14,3.14-2.73,8.18-4.08,16.52-4.2,24.96-.42.64-.7,1.43-.74,2.39-.1,3.02-.08,6.03.03,9.04-.05,3.87-.16,7.74-.37,11.61-.12,2.21,2.17,4.8,4.5,4.5,21.3-2.76,40.74-12.86,55-28.47,3.13.28,6.13.11,9.02-.44,8.99-.28,17.91-1.61,26.12-5.57,10.24-4.95,18.36-14.04,20.19-25.47,1.09-6.83.56-15.06-1.36-22.7,3.99-.61,7.96-1.31,11.91-2.14,1.78-.37,3.27-1.17,4.47-2.23,18.95-5.45,36.36-16.34,48.92-31.65,4.89-5.97,9.31-12.22,12.26-19.38,3.36-8.15,3.42-16.73,1.38-25.24Z"/>
        <path class="cls-1" d="M602.66,338.58c.21-.85.33-1.73.3-2.63-.24-9.18-2.43-17.79-5.98-25.83-.04-.45-.1-.91-.19-1.38-1.23-6.48-4.02-12.14-7.75-17.2-3.7-7-10.16-12.48-17.12-16.94-.29-.33-.59-.66-.89-.99-4.2-4.51-8.31-8.96-11.92-13.97-.65-.9-1.39-1.7-2.2-2.41-.15-.38-.32-.75-.51-1.12-9.2-17.5-26.34-30.71-45.68-34.9-8.69-5.24-18-9.01-28.05-9.03-5.42-1.47-11.1-1.95-16.68-1.28-.07,0-.14.02-.21.03-6.25-.85-12.57-1.26-18.94-1.11-19.14.46-37.52,5.8-53.3,16.23-3.61-2.95-7.98-4.64-13.09-4.33-1.36.08-2.6.36-3.73.81-9.18-.12-18.06,4.03-25.4,10.57-5.61,5-10.66,10.81-15.54,16.76-5.96,5.34-11.01,11.7-14.83,18.73-8.06,6.36-15.22,13.83-20.97,22.25-1.87.83-3.47,2.3-4.49,4.58-1.5,3.35-2.81,6.69-3.86,10.1-.5,1.44-.99,2.88-1.46,4.32-.9,2.5-1.69,5.05-2.34,7.65-.25,1.01-.37,1.97-.37,2.88-.6.82-.98,1.86-1.01,3.14-.11,4.18-.07,8.36.09,12.52.02,3.05.04,6.09.06,9.14-1.02.65-1.71,1.73-1.55,3.19.35,3.25.7,6.51,1.05,9.76.02,1.07.06,2.15.13,3.23.04.57.18,1.06.38,1.5l.55,5.14c.46,4.26,6.55,5.69,7.86,1.06.98-3.49,3.45-5.67,6.41-7.19,2.59-.93,5.18-1.87,7.77-2.84.39-.15.72-.34,1.03-.56,4.42-1.06,8.96-1.65,13.61-1.74.33,0,.64-.05.93-.12,1.24,1.25,2.78,2.17,4.62,2.47,10.91,1.78,21.59.91,32.09-2.65,2.34-.79,4.64-1.69,6.93-2.65.27-.03.55-.07.84-.14,2.17-.52,4.34-1.04,6.51-1.56,1.74-.42,3.05-1.78,3.66-3.4,3.7-1.79,7.59-3.71,10.65-6.3.23.03.46.05.69.05.49-.07.97-.13,1.46-.2.93-.26,1.74-.73,2.43-1.41.15-.15.3-.3.45-.45.5-.47.86-1.02,1.09-1.65.32,1.81,2.2,3.14,3.96,3.2.1,0,.2-.01.3-.01,1.11.91,2.5,1.39,4.09,1.13,3.27.63,6.85-.25,9.86-2.09,4.98-1.5,9.15-4.43,8.23-10.51-.17-1.12-.97-1.95-1.96-2.42-.74-2.73-2.98-5-5.65-5.97.51.02,1.03-.02,1.54-.12,2.1-.42,3.46-1.73,4.19-3.39.63.48,1.24.96,1.88,1.43,1.95,1.41,4.01,1.91,5.99,1.75.79.68,1.57,1.37,2.37,2.04,2.36,2.01,5.29,3.12,8.17,3.1,3.18,2.15,6.43,4.2,9.83,5.94,7.03,3.59,14.55,5.82,22.28,7.31.25.05.5.09.74.14,13.47,5.02,27.48,7.92,41.71,9.6,1.76,1.77,4.29,2.94,7.62,2.99,7.65.13,15.3.18,22.94.2,1.59.2,3.19.39,4.79.55.89.26,1.84.43,2.82.51,14.56,1.15,28.95.36,43.38-1.8,6.63-.99,8.68-8.14,7.4-13.71ZM403.01,325.5c-.53.47-.87.99-1.06,1.51-1.88,1.27-3.3,3.46-4.01,5.48-.11.31-.2.63-.26.96-.43.63-.79,1.34-1.04,2.1-.07-.42-.2-.82-.41-1.21-.15-.45-.37-.86-.65-1.23.01-.07.03-.14.04-.22,3.13-3.05,5.91-6.39,8.38-10.25.05-.08.1-.17.15-.25.46-.3.94-.6,1.42-.89.69.09,1.39.05,2.09-.12,1.32-.33,2.59-.53,3.87-.61.38.31.8.55,1.25.75-3.66-.35-7.06,1.56-9.77,3.98Z"/>
        <path class="cls-1" d="M352.35,458.49c-1.97-2.98-4.17-5.59-6.82-7.96-.05-.33-.14-.65-.29-.93-.54-1.01-1.29-1.71-2.21-2.36-.62-.44-1.3-.54-1.94-.42-.59-.39-1.17-.78-1.76-1.18-1.31-.87-3.38-.3-4.1,1.08-.2.38-.32.77-.36,1.15-1.65-.01-3.24.06-4.57.09-2.13-.4-4.26-.8-6.39-1.2-.75-.43-1.79-.71-2.6-.63-.23,0-.45.02-.66.06-.18-.13-.38-.24-.59-.31-.36-.19-.74-.27-1.16-.26-.41-.02-.8.07-1.16.26-.37.12-.69.33-.97.62l-.47.61c-.27.47-.41.97-.41,1.51.04.27.07.53.11.8.14.51.4.95.77,1.32.05.06.1.12.16.18.02.02.04.03.06.05.08,1.38.88,2.63,2.6,3.06.07.06.14.12.21.18,1.71,2.34,3.57,4.51,5.66,6.48.36,1.22,1.2,2.3,2.58,2.72,1.04.32,2.07.59,3.11.85.24.26.54.5.95.69,5.12,2.38,12.01,1.58,17.22-.47,2.69-.34,4.72-3.49,3.07-5.98Z"/>
        <path class="cls-13" d="M548.33,599.36c-.93-1.59-2.68-1.97-4.27-1.45-3.06-1.4-7.39-.41-11.01.29-.33.01-.66.03-.99.04-1.25-.44-2.72-.91-4.16-1.44-.87-.98-1.75-1.95-2.65-2.9-.13-.14-.26-.27-.4-.4-.04-.27-.1-.55-.2-.82-.42-1.09-.83-2.19-1.25-3.28-.76-1.99-1.42-4.16-3.45-5.23-2.45-1.29-5.34-.81-7.08,1.11-1.63.59-3.1,1.45-4.74,2.75-.95.76-1.46,1.65-1.64,2.58-.35.21-.7.41-1.04.63-.02,0-.04,0-.05,0-8.45,2.31-16.61,5.41-24.44,9.24-.69-1.02-1.94-1.64-3.64-1.24-2.03.48-4.01,1.06-5.97,1.7-2.08-1.29-4.54-1.69-6.75-.76-1.38-.38-2.91-.26-4.23.47-1.66.91-2.58,2.13-3,3.52-14.09-1.47-28.24-1.84-42.4-1.08-1.47.08-2.46.9-2.96,1.94-11.88-1.99-23.87-3.12-35.92-3.34-7.6-2.62-15.48-4.04-23.54-4.13-2.58-1.01-5.19-1.93-7.84-2.72-3.55-1.45-7.1-2.91-10.65-4.36,0,0-.01,0-.02,0-.02-.1-.04-.21-.07-.31-.85-3.56-5.68-3.08-6.75,0-1.12,3.22-1.75,6.46-1.89,9.77-.38.17-.72.39-1.03.64.02.35.03.7.04,1.05.01,1.95-.2,3.89-.21,5.84,0,.5-.19.93-.49,1.26.13.15.27.3.42.44-.03.78-.07,1.56-.13,2.33-.07.27-.13.55-.17.84-.7,5.64-1.88,11.18-3.47,16.61-.45,1.43-.91,2.85-1.4,4.27-1.34,3.02-2.56,6.08-3.55,9.19-1.82,2.22-3.17,4.46-4.05,7.1-.81,1.77-1.46,3.59-1.85,5.48-.05.15-.12.29-.17.44-.12.15-.23.32-.33.49-2.18,3.13-5.14,6.86-4.86,10.14.16,1.82.9,3.92,2.72,4.75.12.05.23.11.35.16.4,1,1.2,1.93,2.52,2.62l34.86,18.37c1.66.88,3.27.85,4.63.27,1.99.86,4.04,1.6,6.14,2.21.76.48,1.53.86,2.34,1.16.21.37.47.71.79,1.01.5.54,1.09.92,1.77,1.14.66.34,1.36.5,2.12.47l1.46-.2c.93-.26,1.74-.73,2.43-1.41.29-.37.57-.74.86-1.11.5-.86.75-1.78.75-2.78v-.42c.03-.76-.13-1.46-.47-2.12-.04-.13-.09-.25-.15-.37-.09-.57-.24-1.13-.48-1.66-.26-.58-.49-1.17-.71-1.75.03-.17.06-.34.08-.52.22-2.22.35-4.43.42-6.64.03-.13.07-.26.09-.39.26-1.45.51-2.9.74-4.36.17-.38.31-.8.41-1.27,1.14-5.59,2.13-11.2,2.98-16.83.09-.27.17-.56.21-.87.69-4.5,1.24-9.01,1.65-13.53.05-.46.09-.92.14-1.38,2.64-3.23,5.1-6.59,7.35-10.11.12-.19.21-.38.3-.58,1.27-.93,2.6-1.8,3.97-2.62.67-.4,1.2-.87,1.61-1.39,1.15-.5,2.04-1.46,2.58-2.6,1.39.14,2.78.22,4.19.21.59,0,1.11-.17,1.57-.43,1.99-.16,4-.15,5.98.19.77.13,1.54.06,2.23-.2,1.23.03,2.47.03,3.7-.03.89-.04,1.6-.36,2.13-.82h4.14c.37,0,.73-.08,1.08-.2.02-.02.04-.05.06-.07.59-.58,1.25-1.09,1.94-1.58.28-.5.45-1.05.42-1.64-.01-.3-.07-.59-.15-.88,1.29.09,2.59.17,3.88.25,2.65-1.09,5.53-1.69,8.24-1.73.81,0,1.38.46,1.67,1.07.39-.44.65-.99.77-1.58,6.58.42,13.17.72,19.77.88-.03.07-.06.15-.09.22-.17.62-.17,1.24,0,1.86.12.28.24.56.35.84.31.53.73.94,1.26,1.26.28.14.56.28.84.42.19.12.38.21.59.28.34.25.75.44,1.22.54.25.05.51.08.79.08.08,0,.14-.02.22-.02l1.52.51c1.96,5.49,5.9,9.27,9.53,13.44,1.33,3.87,2.67,7.75,4,11.62.64,2.03,1.15,4.07,1.52,6.13.27,3.44.54,6.89.81,10.33.32,4.06,5.8,4.49,6.82,1.05.09.01.18.02.28.03.03.02.05.03.08.05.4.71,1.07,1.25,2.07,1.43,1.08.2,2.16.4,3.24.6.87.16,1.64.02,2.29-.31,3.25.11,6.49.23,9.74.34.83.03,1.53-.25,2.07-.7,3.15,1.05,6.41,1.7,9.81,1.85,3.99.18,7.85-.8,11.75-1.31,1.05.73,2.42.99,3.78.83,1.54.84,2.92,1.21,4.68,1.28.67.03,1.24-.13,1.72-.41.51-.03,1-.27,1.2-.73.27-.64.46-1.26.56-1.9.07-.11.13-.22.17-.34.68-.74,1.09-1.81,1.05-3.48-.05-2.16-.54-4.38-.93-6.56.05-.23.09-.47.12-.72,1.03-9.99,1.35-20,.96-30.01,2.73-6.69,5.99-13.11,9.69-19.32,0,0,0-.02.01-.03,1.02-.65,2.09-1.25,3.22-1.77,1.72-.79,2.14-3.27,1.26-4.79ZM350.69,609.31c-.1-.02-.2-.04-.3-.07,0,0,0,.02,0,.02-.49-.07-.97-.16-1.46-.22-.14-.02-.28-.02-.42-.03-1.13-.37-2.27-.75-3.4-1.12-1.89-.62-3.78-1.25-5.66-1.87-.8-.26-4.27-1.97-4.63-1.21-.08-.02-.16-.05-.23-.07-.2-.38-.45-.71-.71-1.02.44-.48.75-1.11.87-1.87.37.12.73.24,1.1.37,5.48,3.35,11.36,5.68,17.44,7.52-.85-.16-1.71-.3-2.58-.43ZM395.33,616.07c-.11,0-.23.01-.34.02,0-.15.01-.31,0-.46.35.05.69.1,1.04.15-.24.07-.48.17-.7.3ZM461.44,617.92c-.2-.36-.47-.68-.8-.96.16-.03.33-.07.49-.1.16.27.32.54.48.81-.06.09-.12.17-.18.26Z"/>
        <path class="cls-8" d="M561.29,601.75c-.2-.29-.5-.52-.85-.66-.24-.09-.49-.17-.73-.24-.27-.93-1.55-1.64-2.54-.78-.08.07-.15.14-.22.21-.05-.02-.1-.04-.15-.05-1.61-.3-3.23-.25-4.77.13-.52.06-1.03.16-1.55.36-.21.08-.38.22-.53.37-1.76.81-3.32,2.07-4.5,3.72-.15.21-.22.42-.24.62-1.21,1.15-2.3,2.44-3.23,3.87-2.26,3.48-3.59,7.45-4.72,11.44-1.95,4.05-2.14,8.57-2.34,13.07-.26,5.7-.26,11.4-.25,17.1,0,3.3,0,6.66.41,9.95.04.62.09,1.25.16,1.87.1,1.6.19,3.19.29,4.79.05.84.65,1.46,1.5,1.5,3.37.16,6.74.12,10.11-.12.24-.02.44-.09.62-.18.2-.05.39-.11.59-.2.2-.09.39-.19.56-.3.03,0,.06,0,.09,0,.87.57,2.36.17,2.39-1.19.19-9.41.37-18.82.56-28.23.56-3.54,1.14-7.08,1.75-10.61.79-4.53,1.61-9.05,2.43-13.57.39-2.12.71-4.41,1.46-6.49.71-1.22,1.45-2.43,2.21-3.62.15-.02.3-.04.45-.05,1.46-.15,1.81-1.94,1.02-2.68Z"/>
        <path class="cls-7" d="M469.44,651.37c.19-.55.27-1.13.23-1.74-.2-2.55-.74-4.51-1.78-6.84-.26-.57-.62-1.04-1.06-1.42-.23-3.19-.69-6.31-1.5-9.29-2.46-9.07-13.74-15.81-22.85-15.34-.98.05-1.86.32-2.61.74-.09,0-.19,0-.28,0-1.57-1.02-3.5-1.28-5.18-.18-1.67-.06-3.36-.02-5.05.12-3.78.06-7.54.34-11.03,1.25-5.21,1.37-8.81,4.82-11.57,9.05-1.85,2.19-3.23,4.76-4.05,7.49-.29.52-.57,1.05-.82,1.59-.15.32-.22.66-.23,1-5.22,12.27-7.98,25.42-8.34,38.79,0,.1.01.2.02.3-.39,1.76-.65,3.54-.8,5.34-.16.3-.29.62-.4.95-.26.82-.52,1.64-.79,2.46-.53,1.74.01,3.73,1.2,5.12.09,2.65.53,5.3,1.34,7.88.38,1.22,1.16,2.26,2.15,2.99.91,1.16,2.29,1.9,4.08,1.74.89-.08,1.78-.15,2.68-.22,8.28,1.26,16.31.7,24.56-.31,6.14.62,12.27.93,18.48.66,4.66-.21,9.75-.52,14.02-2.56.78-.05,1.59-.24,2.4-.59,5.46-2.38,6.93-7.79,7.06-13.51.6-2.85.88-5.77.81-8.7,0-.15-.03-.29-.06-.43.57-3.15.94-6.35,1.06-9.6.19-5.19.15-11.45-1.68-16.75Z"/>
        <path class="cls-7" d="M623.33,587.75c.26-.35.46-.73.6-1.16.34-.66.5-1.36.47-2.12l-.2-1.46c-.26-.93-.73-1.74-1.41-2.43-.37-.29-.74-.57-1.11-.86-.86-.5-1.78-.75-2.78-.75h-.38c-.76-.03-1.46.13-2.12.47-.51.17-.97.42-1.37.76-.29.19-.58.39-.83.64-3.36,3.3-6.55,6.75-9.6,10.32-.37.23-.72.51-1.06.86-2.62,2.74-5.13,5.56-7.57,8.46-5.12.21-10.26.37-15.34.9-.39.04-.76.1-1.12.16-3.31-1.54-7.51,1.26-7.82,4.77-.93,1.16-1.75,2.49-2.49,3.96-4.92,9.75-4.62,20.82-3.6,31.44-.03.27-.06.55-.05.84,0,3.47.02,6.94.02,10.41,0,2.83.42,6-.32,8.75-1.47,3.2.12,7.81,4.78,7.97,2.3.08,4.6.12,6.89.14,4.54.87,9.97.36,13.66.57,1.39.08,2.49-.27,3.33-.87,2.18-.1,4.36-.23,6.54-.38,2.22,1,4.68.92,6.68-.32,1.75.35,3.54.37,4.88-.05.86-.27,1.55-.67,2.12-1.16,1.16-.6,2.1-1.69,2.49-3.38,1.95-8.4,3.75-16.83,3.52-25.5-.02-.59-.15-1.13-.34-1.64.72-4.19,1.39-8.4,1.95-12.62,1.33-9.93,4.27-22.29,1.14-32.14.14-1.53.29-3.06.42-4.59Z"/>
        <path class="cls-16" d="M404.89,623.21c-.91-.37-1.72-.29-2.45.04-1.25.07-2.5.15-3.75.22-1.14-.26-2.39,0-3.46,1.11-.5.52-.99,1.06-1.47,1.6-.1.08-.2.14-.29.24-.39.39-.74.81-1.12,1.21-.84-.37-1.9-.25-2.53.73-1.4,2.18-2.36,4.52-3.09,6.93-.19.33-.4.64-.59.97-.67.31-1.25.85-1.63,1.72-.14.32-.26.64-.39.96,0,0,0,0,0,0,0,.03-.02.06-.03.09-.85,2.04-1.58,4.1-2.19,6.18-.65,1.59-1.26,3.21-1.85,4.83-.2.22-.37.51-.46.88-.09.34-.15.69-.23,1.04-.18.5-.36,1-.54,1.5-.2.58-.24,1.13-.17,1.64-1.1,5.35-1.77,10.78-2.21,16.22-.56,4.68-1.01,9.37-1.37,14.06-.32,3.8-.58,7.61-.76,11.42-.07,1.49.11,2.99,1.5,3.84,1.02.62,2.4.75,3.65.88.38.2.82.24,1.24.15,2.98.42,5.98.74,8.99.98.59.53,1.2,1.03,1.86,1.5,1.67,1.17,3.74-1.1,2.74-2.74-1.89-3.07-3.22-6.31-4.11-9.64.16-1.8.3-3.6.41-5.4.35-3.2.64-6.41.87-9.62.31-4.39.72-8.96.33-13.41l9.3-32.04c.45-.76.9-1.53,1.37-2.27.33-.52.64-1.08,1.02-1.57.09-.11.19-.21.29-.32.2-.01.4-.02.6-.04,2.35-.14,2.59-3.1.53-3.93Z"/>
        <path class="cls-16" d="M571.31,602.03c-.91-.54-1.95-.75-3-.72-.95.03-2.03.11-2.89.55-.19.1-.34.22-.5.34-.78-.11-1.69.18-2.02.94-.07.16-.13.32-.2.48,0,0,0,0,0,0,0,0,0,0,0,0-.88,2.01-1.69,4.05-2.48,6.09-1.85,3.83-3.26,7.86-4.2,12.01-.15.66-.01,1.21.29,1.62l-.34,2.35c-.35,2.12-.66,4.25-.92,6.39l-1.77,12.23c-.12.8.12,1.58.7,2.07-.1,3.73-.08,7.46.09,11.19.03.56.25.99.56,1.31,0,.18-.02.36-.02.55-.15,3.42-.73,7.11.05,10.48.44,1.9,3.42,1.91,3.86,0,.2-.89.81-.67,1.56-.83.02.19.03.38.06.57.15,1.07,1.52,1.66,2.46,1.4,1.16-.32,1.54-1.39,1.4-2.46-1.1-8.1-.23-16.31-1.33-24.41,0-.02,0-.04,0-.07,0,0,0,0,0,0-.02-.18-.04-.36-.06-.53-.07-.46-.27-.79-.54-1.02.85-8.65,2.3-17.24,4.34-25.7.2-.81-.08-1.46-.56-1.9.98-2.32,1.87-4.67,2.66-7.06.33-.62.65-1.25.95-1.89.63-.06,1.23-.22,1.86-.53,1.38-.69,1.22-2.73,0-3.45Z"/>
        <path class="cls-17" d="M327.45,523.04c-3.89-12.39-18.19-17.6-29.93-19.36-9.92-1.48-19.99-.5-29.17,3.2-.25-.04-.51-.08-.78-.08-.71,0-1.43,0-2.14,0-1.32.06-2.59.52-3.54,1.46-.04.04-.08.09-.12.13-1.46-.97-3.36-1.22-5.09-.13-28.2,17.77-46.26,45.89-58.08,76.34-1.69,3.79-3.1,7.7-4.21,11.71-.27.82-.54,1.63-.81,2.45-.21.67-.29,1.28-.27,1.85-.21.94-.4,1.88-.58,2.82-1.06.22-2.05.59-3,1.27-.59.42-1.12,1.18-1.64,1.87-.13,0-.27-.03-.4-.03-1.81-.04-3.09.67-3.87,1.72-.7.04-1.4.16-2.07.56-1.71,1.04-2.73,2.58-3.45,4.42-3.79,9.83-3.58,22.31-2.23,32.56.11.83.36,1.54.7,2.16,1.23,17.5,14.91,29,31.16,34.59.34.41.77.76,1.28,1.05,2.42,1.32,5,2.38,7.66,3.09.98.26,2.02.18,2.97-.15.53.22,1.07.43,1.62.63.64.23,1.24.31,1.82.26,4.68,1.65,9.5,2.81,14.53,3.07,6.03.31,12.23-.79,18.3-1.94.93.14,1.85.22,2.78.24.75.12,1.51.22,2.3.3,1.2.11,2.16-.17,2.9-.68.31-.05.63-.12.94-.18,4.08-.07,8.11-.61,12.13-1.58.21-.05.39-.13.58-.2,3.62-.65,6.75-2.22,9.4-4.41,1.18.02,2.33-.44,3.21-1.58.26-.34.52-.68.78-1.01,0,0,0,0,0,0,.03-.04.05-.07.08-.11,3.07-4.05,5.75-8.2,6.86-12.8.95-2.63,1.69-5.34,2.22-8.12.56-.57,1.01-1.35,1.28-2.37.96-3.7,1.82-7.42,2.6-11.16.23-.41.42-.87.56-1.41,1.22-4.91,2.37-9.84,3.48-14.78.73-.58,1.32-1.45,1.66-2.65,2.58-9.06,5-18.16,7.26-27.3.35-1.4.16-2.6-.34-3.56,3.07-9.61,4.9-19.58,6.75-29.57,1.41-7.6,2.96-15.19,4.08-22.83.95-6.49,1.83-13.38-.17-19.76Z"/>
        <path class="cls-3" d="M260.14,521.06c0-.87-.29-1.74-.95-2.51-.91-1.69-2.35-3.24-4.46-4.57-2.05-1.3-4.32-.71-5.83.71-.66.21-1.3.57-1.92,1.11-4.05,3.55-7.97,7.18-11.31,11.32-.22.25-.45.5-.68.76-.29.33-.52.68-.71,1.02-.18.24-.34.48-.51.72-8.59,8.02-15.97,17.3-21.73,27.57-7.31,13.01-14.02,27.57-17.67,42.08-.16.1-.32.21-.47.33-.27.13-.5.29-.72.47-4.58,1.36-3.98,9.45,1.77,9.81.76.05,1.45,0,2.11-.09,2.75.93,5.53,1.46,8.34,1.63,6.35,4.33,14.13-1.69,17.91-7.44,5.81-8.83,8.64-19.75,11.58-29.77.06-.19.1-.39.14-.57,1.25-2.64,2.55-5.27,3.89-7.87.12-.24.22-.48.31-.71,4.78-7.28,9.5-14.61,13.85-22.13,3.57-6.18,8.76-14.83,7.06-21.85Z"/>
        <path class="cls-3" d="M214.27,624.61c-.63-1.64-2.11-2.94-4.46-3.04-.76-.03-1.5-.01-2.23.03-.33-.01-.66-.03-.98-.07-.68-1.08-1.75-1.8-2.92-2.13-.26-.15-.52-.29-.82-.4-4.26-1.58-8.63-2.43-13.14-2.74-1.31-.88-2.57-1.85-3.78-2.95-2.76-2.51-7.3-1.54-8.36,2.21-3.4,12.03-1.96,24.25-.27,36.43.17,1.22.78,2.1,1.6,2.69,1.2,3.46,2.41,6.96,4.11,10.16.51.97,1.19,1.62,1.95,2.01.07.05.14.09.22.13,1.79,2.28,3.68,4.41,5.84,6.4.11.1.22.19.33.28.62,3.7,6.59,5.91,9.48,1.8,2.44-3.47,3.79-7.87,4.97-12.2,2.82-6.19,5.49-12.9,6.21-19.35,1.64-3.67,2.57-7.47,2.91-11.59.07-.81-.05-1.51-.29-2.12.18-.91.33-1.82.45-2.73.14-1.09-.21-2.04-.83-2.82Z"/>
        <path class="cls-14" d="M209.45,629.33c.09-2.15-.59-4.46-1.42-6.41-.86-2.02-4.29-1.91-5.18,0-1.11,2.36-1.65,4.78-2.07,7.34-.26,1.6.42,3.23,2.1,3.69.98.27,2.2-.07,2.97-.81,1.9-.36,3.52-1.64,3.6-3.81Z"/>
        <path class="cls-14" d="M259.62,543.44c-.77-1.59-1.58-3.16-2.38-4.74.29-1.91-1.23-4.17-3.68-3.54-.99.25-1.62.83-2.02,1.58-.96.85-1.47,2.23-.75,3.69.04.08.08.16.12.25.02.72.06,1.42.08,2.02.04,1.18,0,2.72.23,4.14-.15.49-.27.98-.28,1.5-.06,2.98,3.06,4.54,5.57,3.18.8-.44,1.53-1.07,2.11-1.81.84-.54,1.51-1.25,1.79-2.05.54-1.55-.12-2.84-.78-4.21Z"/>
        <path class="cls-14" d="M184.94,668.82c-.43-.06-.82-.21-1.18-.4-.31-.4-.73-.71-1.27-.89-.02-.02-.04-.04-.07-.05.5-1.8-.47-4.03-2.76-3.85-1.41.11-2.7.32-4.05.71-1.75.29-3.73.67-5.28,1.38-.25-.05-.5-.11-.75-.16-.37-.08-.75-.07-1.12,0-3.17-1.61-5.78,3.22-2.73,5.33,1.67,1.16,3.35,2.32,5.02,3.48.36.26.73.52,1.12.77,1.31.87,2.57.54,3.4-.31,1.82.2,3.64.19,5.51,0,.15-.01.3-.02.44-.04,0,0,0,0,0-.01.27-.03.53-.06.8-.09.26-.04.49-.12.7-.21.2.05.41.09.63.12,3.78.52,5.41-5.26,1.59-5.79Z"/>
        <path class="cls-14" d="M226.72,687.64c-1.18.1-2.36.14-3.53.15-.42-.23-.93-.37-1.55-.33-.68.04-1.37.12-2.06.21-.43-.27-.97-.44-1.62-.42-.31,0-.62.01-.93.02-.04-.01-.07-.03-.1-.04-3.7-1.1-7.4-2.21-11.1-3.31-.21-1.73-1.58-3.24-3.58-2.41-2.91,1.22-5.78,1.56-8.83,2.2-1.36.28-2.75.75-3.67,1.82-3.68-.45-4.92,4.4-1.4,5.8,1.12.44,2.09,1.18,2.99,2.01,1.11,1.29,2.34,2.44,3.19,3.32,1.24,1.25,2.78,1.06,3.84.21,3.53.27,6.7-.52,9.9-1.66,3.72-.2,7.34-1.07,11.11-1.53,2.44.17,4.89.16,7.34-.04,3.82-.32,3.85-6.32,0-6Z"/>
        <path class="cls-14" d="M337.6,518.97c-.17-.67-.58-1.08-1.06-1.27-.65-3.76-2.29-7.25-5.94-9.08-.37-.19-.82-.23-1.25-.16-1.31-1.2-2.83-2.15-4.53-2.74-2.27-.78-4.36-.57-6.53.05-.45-.1-.94-.04-1.43.2-.78.38-1.06,1.1-1.13,1.92-.08.89.68,1.67,1.47,1.93.34.11.65.12.95.09.04.04.08.07.13.11.39.28.8.53,1.2.81.62.76,1.33,1.44,2.12,2,1.1,1.32,2.1,2.73,2.95,4.25,1.55,2.77,2.74,5.74,4.02,8.64.42,2.9.79,5.81,1.11,8.73.01.29.01.58.02.87-.46.32-.8.82-.84,1.53-.24,3.95-.48,7.89-.72,11.84-.59,3.03-1.08,6.07-1.47,9.13-.19.79-.38,1.57-.56,2.36-.68,2.9-1.25,5.82-1.73,8.75-.52,2.25-1.03,4.5-1.55,6.75-.11.46-.07.87.07,1.22-1.11,3.59-2.23,7.17-3.34,10.76-.22.71,0,1.34.44,1.8-.11.71-.2,1.42-.28,2.13-.6.33-1.1.92-1.33,1.83-2.5,9.79-6.44,20.46-6.57,30.62,0,.02,0,.04,0,.06-1.76,5.9-3.61,11.81-4.93,17.8-.13.6-.08,1.14.08,1.62-.83,1.78-1.32,3.67-1.46,5.62-.84,1.97-1.5,3.99-1.99,6.06-.39.97-.71,1.97-.95,2.99-.32.8-.64,1.61-.95,2.43-.4,1.07,1.29,1.75,1.83.77.1-.18.18-.36.28-.54.4-.04.8-.26.96-.67.58-1.47,1.15-2.95,1.73-4.42,1.67-3.32,3.65-6.7,4.66-10.29.75-.29,1.37-.91,1.6-1.96.33-1.49.69-2.98,1.08-4.46.43-.21.82-.52,1.12-.95,5.45-7.75,7.77-18.09,8.41-27.77.6-.48,1.04-1.2,1.11-2.17.28-3.83.29-7.62.06-11.43.04-.09.09-.19.12-.28.57-1.81,1.14-3.61,1.71-5.42.56-1.77,1.37-3.55.87-5.43-.09-.33-.26-.59-.47-.81.18-.79.35-1.58.54-2.37.14-.19.26-.4.35-.64,1.97-5.13,3.24-10.45,3.91-15.9.07-.56-.16-1.04-.54-1.38.21-.91.43-1.82.63-2.73.07-.3.07-.58.03-.84.35-1.34.67-2.68.98-4.03.72-.14,1.31-.67,1.56-1.41.79-2.39,1.48-4.81,1.98-7.27.16-.74.28-1.49.39-2.25.01-.07.03-.14.04-.21,0,0,0,0,0,0,.02-.18.05-.35.08-.53.06-.48-.15-.93-.48-1.29.15-.99.27-1.98.35-2.98.41-1.55.81-3.1,1.04-4.68.29-1.98.27-3.93.08-5.86.66-3.76.96-7.54-.03-11.42Z"/>
        <path class="cls-14" d="M326.33,492.72c-2.37-2.25-5.54-3.21-8.76-3.22-.25,0-.51.02-.76.03-.21-.59-.65-1.08-1.3-1.2-2.56-.48-5.04.2-7.24,1.52-.51.31-1.01.65-1.5,1-4.31,1.27-8.06,4.14-11.58,6.96-.23.18-.38.42-.47.69-2.37-.16-4.72-.04-7.09.37-1.07.18-1.66,1.49-1.4,2.46.31,1.13,1.39,1.58,2.46,1.4,2.52-.43,5.18-.47,7.71-.06,2.39.39,4.75,1.02,7.1,1.59.07.02.13.05.2.07.14.03.28.06.42.09.56.11,1.13.01,1.59-.26.15.18.32.34.52.46.04.03.08.06.12.09.43.35.83.73,1.18,1.15.18.2.4.33.64.41.24.13.5.18.77.17.28.01.53-.05.77-.17.25-.08.46-.22.64-.41.1-.13.21-.27.31-.4.18-.31.27-.65.27-1.01-.02-.18-.05-.35-.07-.53-.1-.34-.27-.63-.51-.88-.61-.72-1.34-1.33-2.12-1.86-.17-.11-.35-.17-.54-.2.62-.25,1.23-.51,1.83-.78.29-.12.58-.25.87-.39.85-.27,1.71-.53,2.58-.77,3.01-.84,6.37-1.14,9.13-2.68.93-.06,1.87-.14,2.8-.19,1.66-.09,2.73-2.16,1.41-3.41Z"/>
        <path class="cls-18" d="M336.37,417.89c-7.07-8.44-12.87-17.72-17.48-27.69,1.48-1.1,2.03-3.79.04-5.25-.73-.54-1.52-.81-2.34-.87-.81-.7-1.95-.89-3.1-.01-.67.52-1.33,1.06-1.97,1.64-3.01,1.9-5.79,5-7.19,6.82-4.16,5.4-5.97,12.26-4.54,18.98,3.52,16.48,20.99,19.09,34.53,13.63,1.38-.55,1.97-1.77,1.99-2.97,1.19-1.17,1.2-2.93.07-4.27Z"/>
        <path class="cls-18" d="M587.38,419.35c-14.36-3.42-29.29,2.52-38.71,13.64-10.05,11.85-12.92,27.89-8.13,42.61.88,2.7,4.26,2.55,5.49.81.34-.03.7-.08,1.09-.18,5.39-1.3,12.35-5.7,16.48-10.4,6.52-3.81,11.2-10.1,15-16.97,3.77-5.33,6.61-11.28,8.45-17.68.19-.66.12-1.27-.11-1.81.46-1.41.73-2.84.56-4.31,2.43-.86,3.01-4.97-.11-5.71Z"/>
        <path class="cls-18" d="M511.34,492.21c.06-.37.06-.78-.03-1.22-.35-1.67-.83-3.28-1.39-4.84.41-.61.55-1.41.18-2.35-2.83-7.21-6.9-13.43-12.53-18.77-.52-.5-1.15-.72-1.78-.76-1.73-1.76-3.7-3.12-6.12-4.18-.18-.08-.37-.15-.56-.22-3.25-2.19-6.88-3.81-10.88-4.81-.8-.2-1.5-.09-2.08.2-.6-.22-1.19-.21-1.74-.04-.36-.08-.72-.13-1.08-.19-.89-3.32-4.51-5.19-7.21-7.06-3.35-2.33-6.87-4.61-10.92-5.48-8.51-1.82-18.83.45-26.72,3.73-16.48,6.84-27.71,21.28-34.12,37.51-1.03,2.6,1.72,4.12,3.85,3.43.07,0,.14.02.22.02.04,0,.07,0,.1-.01.11,0,.23-.02.34-.03.68-.09,1.21-.37,1.61-.78,0,0,0,0,0,0,.37.17.8.27,1.3.26,1.4-.02,2.79-.01,4.18.02.25.04.5.09.74.13.6.29,1.27.4,1.9.26,3.6.47,7.22.74,10.88.74,3.07,0,4.11-4.8,1.34-5.76.3-.52.6-1.05.9-1.57,4.03-4.59,7.92-9.29,11.75-14.05,1.79-1.82,3.57-3.64,5.36-5.46,3.04-.99,5.98-2.25,8.92-3.53,1.19,13.01,8.05,24.99,19.31,31.88,11.97,7.33,28.72,10.08,42.3,6.6,1.89-.48,2.42-2.2,1.99-3.66ZM457.21,455.72c-.21,0-.41,0-.62,0-.56,0-1.12.19-1.61.5-.46.11-.92.22-1.38.34-.15-.53-.43-.95-.78-1.29,1.12-.45,2.26-.87,3.41-1.26,1.43-.22,2.8-.24,4.01.09,1.38.38,2.46-.17,3.09-1.07.8.5,1.58,1.04,2.27,1.57-2.78.14-5.57.55-8.37,1.13Z"/>
        <path class="cls-8" d="M477.29,449.53c-1.59-1.52-3.25-2.95-4.96-4.27.13-.81-.1-1.69-.87-2.44-2.78-2.71-6.23-4.55-10.05-5.72.25.02.5.03.74.05,3.85.27,3.84-5.73,0-6-25.86-1.81-56.45,2.28-69.94,27.6-1.22,2.29.73,4.61,2.83,4.49-.87,1.02-1.73,2.05-2.56,3.1-2.37,2.99,1.84,7.27,4.24,4.24,4.77-6.02,10.16-11.6,16.25-16.25,5.44-2.39,10.61-5.36,16.26-7.26,9.09-3.06,20.38-4.68,30.28-2.5,4.99,2.06,9.55,5.38,13.52,9.2,2.79,2.67,7.03-1.56,4.24-4.24ZM409.94,449.16c-.58.24-1.15.49-1.73.72-.79.31-1.58.62-2.37.92,5.91-5.47,13.19-8.97,21.05-11.11-6.11,2.36-11.76,5.59-16.95,9.46Z"/>
        <path class="cls-15" d="M542.16,529.09c-1.08-4.17-2.26-8.33-3.38-12.49-.08-.31-.19-.59-.31-.86-.7-8.76-2.75-17.37-6.14-25.58-1.06-2.57-3.25-4.18-6.15-3.49-1.12.26-2.48.44-3.48,1.04-.23.18-.46.36-.69.53-.08-.11-.14-.23-.23-.33-.35-.54-.82-.97-1.4-1.29-.57-.37-1.19-.56-1.86-.59-.66-.15-1.33-.12-1.99.09-1.21.39-2.38,1.14-2.99,2.3-.6,1.13-.97,2.61-.5,3.85.21.55.42,1.11.63,1.66.1.41.27.77.48,1.11,1.36,5.68.82,11.21-.72,16.57-.66.54-1.21,1.26-1.59,2.18-1.44,3.49-2.84,6.99-4.23,10.49-8.42,6.61-18.13,11.59-27.12,17.47-2.24.31-4.48.62-6.72.93-3.06.42-6.7.5-10.1,1.02-.63-.67-1.44-1.2-2.32-1.44-.66-.21-1.33-.24-1.99-.09-.67.03-1.29.23-1.86.59-1.07.69-2.01,1.71-2.3,2.99-.05.22-.09.45-.11.67,0,.02-.02.03-.03.04-.09.16-.17.32-.25.5-9.85,7.07-19.99,13.71-30.41,19.89-5.39,1.98-10.81,3.85-16.26,5.65-1.15-.76-2.61-1.01-4.13-.75-1.31.22-2.77.76-4.07,1.56-.3.09-.6.18-.9.26-.43.12-.81.29-1.16.48-.31-2.34-.62-4.68-.94-7.02-.65-4.89-2.5-11.52-2.27-17.29.51-2.67,1.22-5.32,2.2-7.95.58-1.55.29-2.93-.47-3.99.63-2.13,1.19-4.27,1.7-6.43,1.64-5.37,3.31-10.74,5.02-16.09,2.78-.64,5.52-1.44,8.22-2.44,2.83-.23,5.73-.66,7.58-3.13,2.28-3.05,1.86-5.85.37-8.39.12-2.16.19-4.32.2-6.5,0-2.02-1.54-4.45-3.67-4.82-2.15-.38-4.47-.45-6.48.15-7.85-2.78-15.84-5.08-23.79-7.54-4.01-1.24-8.02-2.51-11.97-3.93-1.6-.58-10.33-3.11-10.52-4.11-1.05-5.52-10.13-4.29-9.82,1.33.27,5.04-3.69,9.56-4.88,14.39-.21.86-.16,1.67.06,2.42-.1.24-.21.47-.31.71-2.65-.22-5.57.87-7.84,1.99-2.4,1.18-5.73,2.94-7.41,5.39-.61.3-1.19.68-1.72,1.17-1.93,1.78-1.94,5.29,0,7.07.85.78,1.85,1.22,2.88,1.35,2.14,3.26,3.8,6.71,5.05,10.39.14,8.65.22,17.35-.79,25.95-2.5,7.43-4.18,15.09-5.05,22.94-.1.19-.2.39-.28.6-1.47,3.73-2.76,7.5-3.87,11.35-.38,1.3-.23,2.46.25,3.41.21,1.23.94,2.4,2.35,3.22,1.63.95,3.29,1.66,5.08,2.26.77.26,1.51.27,2.2.14,4.02,1.7,8.32,2.84,12.75,3.65,6.83,3.09,15.78,6.31,23.43,5.4,11.88,2.95,24.34,2.59,36.6,2.3,7.13-.17,14.35.36,21.47-.16,7.35,2.51,14.68,1.72,22.43.4,1.54-.26,2.83-1.66,3.39-3.19.3,0,.79-.17,1.48-.52,1.2-.27,2.4-.51,3.61-.73,1.31-.24,2.62-.44,3.94-.62.75.24,1.5.49,2.27.69,1.09,1.07,2.72,1.64,4.68,1.23,10.35-2.16,21.42-6.4,30.7-12.35.07-.02.13-.03.2-.05,1.71-.53,3.44-1.37,5.16-1.34,1.61.03,2.81-.57,3.62-1.49.8-.53,1.47-1.2,1.99-2.17,1.63-3,.11-6.06-2.84-7.28.72-4.24,1.24-8.5,1.54-12.78.35-1.87.7-3.74,1.04-5.61.21-1.12.07-2.12-.3-2.98.25-1.33.52-2.66.78-3.99,1.3.59,2.84.64,4.33-.25,4.33-2.57,8.77-4.91,13.42-6.86.71-.3,1.3-.68,1.79-1.12,2.57-1.17,4.76-2.67,5.82-4.65,1.24-2.33.57-4.75-.05-7.15Z"/>
        <path class="cls-8" d="M545.45,592.9c-1.65-7.47-3.41-14.92-5.34-22.33-1.16-4.46-2.23-9-3.75-13.37-.26-2.44-.52-4.88-.78-7.33,1.38-1.51.93-4.03-1.34-4.89-.05-.13-.09-.25-.14-.37-.52-1.12-2.24-1.79-3.39-1.38-1.64.59-3.25,1.23-4.85,1.9-.54-.11-1.09-.18-1.67-.14-1.41.1-2.82.43-4.01,1.23-1.09.74-1.94,1.69-2.3,2.99-.33,1.2-.18,2.79.5,3.85.02.03.04.06.07.09-.05.55-.1,1.11-.14,1.69-.3,3.76-.45,7.52-.49,11.29-.01.02-.02.04-.03.06-.53,1.13-.41,2.43-.41,3.65,0,.72,0,1.44,0,2.16,0,0,0,0,0,0v2.08c0,.76.24,1.36.62,1.83,1.33,5.24,4.98,9.65,8.28,14.16,1.71,2.34,2.95,6.61,5.38,8.19,2.79,1.81,7.94,1.25,11.12,1.52,1.32.11,2.31-.76,2.74-1.87.03-.04.06-.1.09-.14,1.31-1.18,1.69-3.56-.13-4.89Z"/>
        <path class="cls-13" d="M546.04,598.98c-1.47-2.51-4.38-2.93-6.84-1.79-.67.31-4.03-.43-5.25-.55-2.24-.21-4.45-.35-6.7-.24-6.4.32-6.44,10.32,0,10,5.67-.28,11.66,1.89,17-.58,2.45-1.14,3.06-4.67,1.79-6.84Z"/>
        <path class="cls-16" d="M395.79,539.71c1.02-3.76,1.92-7.51,2.5-11.33,1.29-4.62,2.9-9.15,4.9-13.56,2.61-5.75-5.64-10.85-8.63-5.05-1.85,3.59-3.38,7.26-4.64,10.99-.59.74-.99,1.69-1.07,2.85-.02.28-.05.56-.08.85-4.46,15.46-4.59,31.86-3.4,48.06.04.52.15.99.3,1.43,0,.11,0,.21,0,.32.1,3.41,3.04,5.35,6.02,4.8.24.11.49.21.73.28,1.2.33,2.79.18,3.85-.5,1.07-.69,2.01-1.71,2.3-2.99.31-1.35.13-2.61-.5-3.85-.62-1.21-1.48-2.34-2.46-3.28-.06-7.89.23-15.77.95-23.64.14-1.51-.31-2.65-1.09-3.45.05-.45.09-.9.15-1.35.07-.18.13-.37.18-.57Z"/>
        <path class="cls-16" d="M543.44,530.31c-.57-2.56-3.67-4.3-6.15-3.49-1.05.34-1.9.95-2.52,1.71-2.21.72-4.4,1.48-6.58,2.28-1.82.56-3.65,1.2-5.27,2.07-2.21-.06-4.65,1.36-5.07,3.64-.16.85-.31,1.7-.47,2.55-.45,2.44.46,4.92,2.9,5.9,2.06.83,5.26.28,6.24-2.05.54-1.27,1.77-1.43,3.02-1.84,1.99-.65,3.99-1.29,5.98-1.93.3.16.61.29.93.39,2.36.75,4.89-.59,6.08-2.63,1.18-2.01,1.4-4.36.9-6.6Z"/>
        <path class="cls-5" d="M522.3,452.32c-.6-.93-1.16-1.88-1.71-2.83.76-.79,1.2-1.92,1.03-3.42-.89-8.25-.46-16.62-2.01-24.8-1.05-5.55-3.41-14.34-9.94-15.75-3.45-.75-7.09,1.13-8.54,3.9-6.05,4.05-10.66,12.55-11.51,19.93-.09.24-.18.47-.26.71-.58,1.66-.66,5.05-1.34,7.07-.93.63-1.71,1.43-2.43,2.56-2.93,4.61,2.65,8.73,6.84,6.84,2.78-1.25,7.36.72,10,1.67,2.93,1.05,5.64,2.48,8.29,4.09.92,1.72,1.89,3.41,2.95,5.06,3.47,5.4,12.12.39,8.63-5.05Z"/>
        <path class="cls-6" d="M521.63,428.37c.63-10.76-2.87-27.09-16.13-21.97-12.38,4.78-16.48,22.8-19.87,33.94-1.01,3.32,2.17,6.66,5.36,6.36.65.4,1.39.68,2.23.75,2.66.21,5.19.29,7.74.14.6.06,1.2.1,1.8.11,3.12.91,5.98,2.67,8.37,5.1,0,0,0,0,.01.01.11.55.22,1.1.35,1.64.25,1.12.77,1.96,1.44,2.54.86,1.07,2.1,1.77,3.69,1.77,2.47,0,5.31-2.3,5-5-.15-1.28-.41-2.49-.8-3.63,1.17-.78,1.94-2.1,1.81-3.99-.33-4.78-.29-9.55.1-14.33.12-1.5-.33-2.64-1.1-3.44Z"/>
        <path class="cls-8" d="M531.17,441.48c-.1-2.23-.16-4.46-.22-6.69.31-.86.36-1.87,0-3-.03-.09-.05-.19-.07-.28-.04-2.57-.05-5.14-.02-7.71.02-1.57-.57-2.75-1.46-3.56-.05-.56-.11-1.12-.18-1.67.16-.74.14-1.51-.13-2.25-.1-.26-.19-.53-.29-.79-.49-3.24-1.09-6.47-1.79-9.68-.4-1.84-1.52-2.91-2.86-3.35-2.2-5.8-11.62-3.19-9.56,2.86,1.45,4.29,2.98,8.55,4.56,12.79.19,1.32.36,2.65.5,3.98.37,3.63.44,7.27,1.27,10.81.1,5.96.35,11.9.77,17.85.02.3.07.58.13.85-.18,1.39-.47,2.76-1.02,4.07-1.06,2.48-.74,5.36,1.79,6.84,2.1,1.23,5.78.7,6.84-1.79,1.05-2.46,1.86-4.81,2.22-7.46.33-2.4.12-4.88.57-7.25.31-1.66-.05-3.35-1.04-4.57Z"/>
        <path class="cls-12" d="M515.34,456.92c-.06-.04-.11-.09-.16-.14-4.02-6.15-13.55-6.93-19.71-9.6-1.64-.71-3.22-.59-4.5.02-3.01-1.52-7.52-.13-7.37,4.23.14,4.27,1.25,6.33,5.24,8.09,2.87,1.27,5.73,2.37,8.2,4.16.11,2.33,1.74,4.67,4.8,5.02,1.73.2,4,.16,6.26-.21.93-.08,1.84-.24,2.73-.49.27-.04.53-.07.8-.11.48.07.98.09,1.48.03,1.3.47,2.74.44,4.03-.39.82-.53,1.52-1.34,1.97-2.25,2.53-2.96.53-8.53-3.75-8.36Z"/>
        <path class="cls-10" d="M597.75,228.54c.39-2.16,0-4.38-1.74-6.39-3.8-4.41-10.78-4.75-15.43-1.58-3.04.8-5.87,2.38-7.91,4.63-3.75,4.15-3.44,10.35.55,13.78.03.05.05.1.07.16,2.76,5.15,9.23,5.48,14.26,3.87,4.85-1.56,9.4-5.38,10.36-10.59.25-1.36.16-2.66-.17-3.87Z"/>
        <path class="cls-10" d="M594.73,260.57c-1.11-2.07-3.33-3.23-5.63-3.27-.16,0-.31.02-.47.03-.88,0-1.75.18-2.49.66-.24.16-.48.34-.7.52-1.07.8-1.9,1.93-2.28,3.23-.56,1.92-.19,4.08,1.08,5.63.53.78,1.22,1.46,2.07,1.97,2.35,1.43,5.72.73,7.5-1.29,1.85-2.1,2.25-4.98.91-7.48Z"/>
        <path class="cls-10" d="M624.98,227.14c-.01-.07-.03-.14-.04-.21,0,0,0,0,0,0-.21-.93-.67-1.86-1.34-2.47-.09-.08-.19-.16-.28-.24-.68-.63-1.51-1.12-2.46-1.38-.91-.26-1.9-.29-2.85-.13-.31-.06-.63-.09-.93-.08-2.67.12-5.04,2.2-5,5,0,.54.08,1.07.2,1.6.03.34.09.68.2,1.02.56,1.74,1.87,3.14,3.65,3.65.04.01.09.01.13.03,1.31.53,2.77.63,4.22.26,2.11-.54,3.9-2.35,4.45-4.45.23-.88.23-1.76.06-2.58Z"/>
      </g>
      <g>
        <path class="cls-2" d="M191.69,606.14c6.62-17.71,13.3-35.53,22.89-51.89,8.35-14.25,19.09-27.48,32.79-36.89s30.93-14.81,47.85-12.81c8.11.96,16.89,3.64,23.26,8.94s8.72,13.17,8.68,21.31c-.04,8.68-2.11,17.27-3.79,25.74-1.94,9.75-3.99,19.48-6.16,29.19-4.33,19.41-9.09,38.72-14.3,57.92-1.3,4.8-2.63,9.59-3.99,14.37-1.16,4.09-2.19,8.33-4.2,12.11s-4.91,6.41-8.69,8.22-8.17,2.76-12.34,3.62c-18.05,3.7-37.4,3.99-55.38-.27-14.48-3.43-29.16-10.62-36.54-24.17-4.03-7.4-5.46-15.9-5.46-24.25,0-4.27.35-8.54.97-12.76s1.09-8.44,2.95-12.09c1.67-3.27,5.16-6.19,9.03-4.96,1.84.58,2.63-2.31.8-2.89-3.89-1.23-8.13.59-10.65,3.65-2.84,3.44-3.74,7.92-4.49,12.2-1.53,8.76-2.19,17.72-.92,26.56,1.2,8.38,4.41,16.35,9.86,22.88,5.01,6,11.65,10.5,18.73,13.7,7.25,3.28,14.99,5.36,22.84,6.57,9.95,1.53,20.08,1.96,30.13,1.29,5.08-.34,10.15-.95,15.17-1.84,4.6-.81,9.28-1.72,13.68-3.33,4-1.46,7.8-3.6,10.51-6.96s4.25-7.45,5.48-11.55c5.96-19.71,10.95-39.78,15.7-59.82,2.41-10.15,4.69-20.33,6.86-30.54,2.08-9.82,4.21-19.67,5.88-29.57,1.39-8.2,2.33-17.05-.44-25.08-2.91-8.42-9.75-13.88-17.76-17.22-16.52-6.9-35.56-5.15-51.7,1.93-15.92,6.98-28.95,19.34-39.08,33.26-11.32,15.54-19.05,33.31-25.95,51.15-1.73,4.48-3.42,8.99-5.1,13.49-.68,1.81,2.22,2.59,2.89.8h0Z"/>
        <path class="cls-2" d="M164.73,667.78c5.04-1.32,10.13-2.42,15.26-3.31.8-.14,1.25-1.12,1.05-1.85-.23-.84-1.04-1.19-1.85-1.05-5.13.89-10.22,2-15.26,3.31-1.87.49-1.08,3.38.8,2.89h0Z"/>
        <path class="cls-2" d="M162.22,667.95l5.17,6.27c.77.94,1.5,2.08,2.47,2.83s1.96.71,3.1.65c5.42-.27,10.82-1.01,16.13-2.17,1.89-.41,1.09-3.3-.8-2.89-4.73,1.03-9.52,1.71-14.36,2.01-.57.03-1.14.09-1.71.09s-.62-.12-.99-.54c-.75-.87-1.46-1.77-2.19-2.66l-4.7-5.7c-1.23-1.49-3.34.64-2.12,2.12h0Z"/>
        <path class="cls-2" d="M184.7,687.61c5.6-1.31,11.2-2.63,16.8-3.94,1.88-.44,1.08-3.33-.8-2.89-5.6,1.31-11.2,2.63-16.8,3.94-1.88.44-1.08,3.33.8,2.89h0Z"/>
        <path class="cls-2" d="M183.04,687.44c3.19,3.41,6.47,6.74,9.84,9.97,1.68,1.61,2.92,2.76,5.39,2.33,2.23-.39,4.45-.93,6.67-1.4,9.33-1.97,18.66-3.93,28-5.9,1.89-.4,1.09-3.29-.8-2.89-8.69,1.83-17.38,3.66-26.06,5.49-2.09.44-4.18.88-6.27,1.32-.83.17-2.25.77-3.1.45s-1.76-1.59-2.38-2.19c-3.12-3.02-6.17-6.13-9.14-9.3-1.32-1.41-3.44.71-2.12,2.12h0Z"/>
        <path class="cls-2" d="M250.73,533.92c-1.53,3.96-2.29,8.23-2.19,12.47.04,1.89.13,3.98,1.31,5.55,1.08,1.43,2.87,2.15,4.64,2.13,1.94-.03,3.82-.9,5.4-1.99,1.76-1.22,2.59-2.76,2.61-4.92.02-3.66-1.37-7.26-3.48-10.21-1.16-1.63-2.6-3.48-4.3-4.58-.94-.61-2.15-.71-3.05.04-.82.69-1.03,1.7-1.12,2.72-.16,1.92,2.84,1.91,3,0,0-.08.14-.53.12-.57l-.3.15c-.33.05-.39.13-.2.23.02.07.27.23.33.28.53.47,1.04.99,1.52,1.51.88.97,1.66,2.01,2.33,3.14,1.31,2.2,2.16,4.7,2.14,7.28,0,1.43-.61,2.04-1.78,2.75-1.09.67-2.38,1.29-3.7,1.14-2.91-.35-2.52-4.09-2.46-6.25.1-3.47.83-6.86,2.08-10.09.29-.76-.32-1.65-1.05-1.85-.85-.23-1.55.29-1.85,1.05h0Z"/>
        <path class="cls-2" d="M254.68,513.96c3.94,1.14,5.9,5.17,5.94,9.04.05,4.78-2.22,9.13-4.36,13.26-.89,1.71,1.7,3.23,2.59,1.51,2.56-4.94,5.27-10.32,4.7-16.06-.47-4.77-3.29-9.26-8.08-10.64-1.86-.54-2.65,2.36-.8,2.89h0Z"/>
        <path class="cls-2" d="M194.14,611.43c3.23,1.21,6.54,2.17,9.92,2.84,3.2.64,6.78,1.38,10.05.99,5.97-.71,8.68-6.64,11.08-11.4,5.79-11.49,10.32-23.55,15.79-35.18,3.07-6.53,6.46-12.91,10.47-18.91,1.08-1.61-1.52-3.11-2.59-1.51-6.81,10.2-11.76,21.45-16.58,32.68-2.45,5.71-4.88,11.42-7.54,17.04-1.25,2.64-2.55,5.27-3.94,7.85-1.18,2.19-2.55,4.58-4.81,5.81-1.55.85-3.34.79-5.05.64s-3.46-.4-5.17-.71c-3.7-.68-7.32-1.7-10.84-3.02-1.81-.68-2.59,2.22-.8,2.89h0Z"/>
        <path class="cls-2" d="M215.67,610.06c8.95-16.51,16.18-33.88,24.83-50.55,2.43-4.68,4.97-9.29,7.69-13.81.75-1.24-1.2-2.38-1.94-1.14-9.68,16.11-17.08,33.41-25.31,50.27-2.31,4.74-4.7,9.45-7.21,14.08-.69,1.27,1.25,2.41,1.94,1.14h0Z"/>
        <path class="cls-2" d="M248.5,516.28c2.59.91,5.4,2.35,6.48,5.06.55,1.4.41,2.91.17,4.36s-.51,2.97-1.29,4.27,1.19,2.37,1.94,1.14c.94-1.55,1.29-3.32,1.57-5.09.29-1.85.42-3.73-.3-5.5-1.38-3.4-4.65-5.25-7.96-6.41-1.37-.48-1.96,1.69-.6,2.17h0Z"/>
        <path class="cls-2" d="M184.44,613.59c6.53,4.03,13.96,6.12,21.3,8.12,1.86.51,2.66-2.38.8-2.89-7.1-1.94-14.27-3.93-20.58-7.82-1.65-1.02-3.16,1.58-1.51,2.59h0Z"/>
        <path class="cls-2" d="M215.74,618.14c-.49,8.42-1.7,16.78-3.64,25-1.85,7.84-4.19,15.79-7.55,23.13-1.69,3.69-3.82,7.13-7.06,9.65-1.52,1.18.61,3.29,2.12,2.12,6.11-4.75,8.79-12.7,11.23-19.75,2.85-8.24,4.96-16.74,6.31-25.36.77-4.9,1.3-9.84,1.59-14.79.11-1.93-2.89-1.92-3,0h0Z"/>
        <path class="cls-2" d="M222.27,618.8c8.98,4.47,18.72,6.93,28.56,8.64s20.78,3.33,31.21,4.19c6.15.51,12.33.63,18.48.03,1.9-.19,1.92-3.19,0-3-10.66,1.04-21.35-.13-31.92-1.59-9.81-1.35-19.69-2.63-29.28-5.16-5.35-1.41-10.58-3.24-15.54-5.71-1.72-.86-3.24,1.73-1.51,2.59h0Z"/>
        <path class="cls-2" d="M292.68,502.25c2.17-3.19,4.85-6.09,8.12-8.17,3.54-2.25,7.76-3.4,11.88-3.98s8.5-.2,11.45,2.81c.54.55,1.37,1.45,1.45,2.26s-.73.87-1.39.97c-2.13.31-4.25.52-6.36.95-4.83.99-9.5,2.64-13.93,4.8-1.73.85-.22,3.44,1.51,2.59,4.67-2.29,9.66-3.9,14.78-4.8,1.27-.22,2.55-.38,3.83-.52.95-.11,1.94-.23,2.79-.71,2.12-1.19,2.11-3.65,1.03-5.57-2.24-3.99-6.96-5.82-11.33-5.99-5.04-.2-10.62,1.18-15.13,3.4s-8.4,6.16-11.31,10.44c-1.09,1.6,1.51,3.1,2.59,1.51h0Z"/>
        <path class="cls-2" d="M298.24,503.82c6.84-5.84,15.22-9.62,24.09-11.03,1.9-.3,1.09-3.19-.8-2.89-9.39,1.49-18.19,5.63-25.42,11.8-1.47,1.26.66,3.37,2.12,2.12h0Z"/>
        <path class="cls-2" d="M284.3,503.16c1.46-1.16,2.81-2.43,4.39-3.31,1.42-.79,2.95-1.02,4.64-.79.8.11,1.5-.77,1.5-1.5,0-.9-.69-1.39-1.5-1.5-2.05-.28-4.18.15-6,1.12-.92.49-1.73,1.14-2.54,1.78-.87.69-1.74,1.39-2.61,2.08-.63.51-.53,1.59,0,2.12.63.63,1.49.51,2.12,0h0Z"/>
        <path class="cls-2" d="M308.53,503.35c.09.11.18.22.26.33l-.23-.3c.79,1.03,1.44,2.15,1.95,3.34l-.15-.36c.16.39.31.78.45,1.18.25.74,1.05,1.31,1.85,1.05.74-.24,1.31-1.05,1.05-1.85-.67-2.03-1.7-3.86-3.04-5.51-.23-.28-.72-.44-1.06-.44-.37,0-.81.16-1.06.44s-.46.66-.44,1.06c.02.42.18.74.44,1.06h0Z"/>
        <path class="cls-2" d="M314.95,508.9c3.29-3.44,8.82-3.57,12.83-1.32,4.55,2.55,7.17,7.54,8.41,12.44,1.58,6.24,1.22,12.82.19,19.12s-2.6,12.63-4.15,18.87c-3.14,12.67-6.57,25.31-8.32,38.27-.86,6.36-1.04,12.83-2.56,19.08s-3.55,11.83-5.59,17.62c-4.33,12.32-9.59,24.6-18.18,34.6-1.25,1.46.86,3.59,2.12,2.12,8.05-9.37,13.32-20.59,17.57-32.09,2.24-6.06,4.39-12.21,6.17-18.42,1.89-6.62,2.32-13.35,3.12-20.15,1.59-13.64,5.27-26.94,8.57-40.24,1.64-6.63,3.33-13.29,4.33-20.05s1.26-13.41-.47-19.91c-1.52-5.69-4.86-11.49-10.31-14.19-5.1-2.53-11.78-2.14-15.85,2.11-1.34,1.39.78,3.52,2.12,2.12h0Z"/>
        <path class="cls-2" d="M336.18,362.4c-3.66-4.11-8.59-7-14.05-7.87-5.16-.82-10.46-.08-15.29,1.89-10.24,4.19-17.02,13.37-20.69,23.54-7.53,20.88-3.93,47.29,14.8,61.07,4.88,3.59,10.54,5.9,16.52,6.81,7.3,1.11,14.84.92,22.16.18,1.9-.19,1.92-3.2,0-3-6.13.63-12.37.8-18.52.26-5.25-.47-10.32-1.8-14.92-4.41-8.45-4.79-14.74-12.9-17.91-22.02-3.63-10.45-3.59-22.02-.9-32.68,2.44-9.64,7.48-19.33,16.16-24.72,4.63-2.88,10.09-4.49,15.56-4.23,5.83.28,11.07,2.97,14.94,7.31,1.29,1.44,3.4-.68,2.12-2.12h0Z"/>
        <path class="cls-2" d="M315.46,385.46c6.48,12.14,12.79,24.38,18.91,36.7.86,1.73,3.45.21,2.59-1.51-6.12-12.33-12.42-24.56-18.91-36.7-.91-1.7-3.5-.19-2.59,1.51h0Z"/>
        <path class="cls-2" d="M313.96,414.65c3.67-4.6,7.57-9,11.68-13.2,1.35-1.38-.77-3.5-2.12-2.12-4.11,4.2-8.01,8.61-11.68,13.2-.5.63-.62,1.5,0,2.12.52.52,1.61.64,2.12,0h0Z"/>
        <path class="cls-2" d="M314.26,448.04c4.45,8.63,10.32,18.66,21.1,19.6,2.91.25,5.88-.12,8.81-.02,2.48.09,5.06.04,7.27-1.22,1.84-1.05,3.28-2.84,3.45-5,.2-2.56-1.44-4.78-2.8-6.79-3.16-4.68-7.13-9.29-13.16-9.7-1.93-.13-1.92,2.87,0,3,4.34.3,7.48,3.79,9.82,7.12,1.11,1.59,2.87,3.57,3.13,5.55.24,1.8-1.34,3.1-2.89,3.64-2.12.74-4.49.37-6.68.33-2.39-.04-4.81.33-7.2.06-3.95-.45-7.47-2.73-10.19-5.53-3.49-3.6-5.8-8.15-8.08-12.56-.89-1.72-3.48-.2-2.59,1.51h0Z"/>
        <path class="cls-2" d="M351.24,468.31c15.84,10.11,33.63,17.16,52.1,20.6,5.24.98,10.53,1.67,15.85,2.08,1.93.15,1.92-2.85,0-3-18.34-1.42-36.4-6.4-52.88-14.59-4.65-2.31-9.18-4.88-13.56-7.68-1.63-1.04-3.14,1.55-1.51,2.59h0Z"/>
        <path class="cls-2" d="M584.59,356.73c-.14,6.32-.29,12.64-.43,18.96-.14,5.97-.6,12.01,1.04,17.83.77,2.72,1.73,5.37,2.34,8.14s.98,5.56,1.13,8.38c.29,5.59-.27,11.18-1.5,16.63-2.32,10.32-6.82,20.49-13.41,28.81-3.18,4.02-6.89,7.65-11.11,10.56-4.71,3.25-9.85,5.91-14.89,8.61-11.02,5.89-22.99,11.23-35.78,10.38-1.93-.13-1.92,2.87,0,3,11.6.77,22.69-3.39,32.9-8.51,5.23-2.62,10.41-5.44,15.44-8.44,4.73-2.82,9.07-6.18,12.8-10.24,7.31-7.96,12.45-17.89,15.57-28.18,3.32-10.94,4.23-22.84,1.21-33.96-.87-3.2-2.14-6.3-2.61-9.6s-.28-6.96-.2-10.42c.17-7.32.33-14.64.5-21.95.04-1.93-2.96-1.93-3,0h0Z"/>
        <path class="cls-2" d="M424.09,510.13c-3.02-7.46-4.54-15.8-2.21-23.67,2.19-7.38,7.24-14.14,12.83-19.31,10.61-9.83,25.82-14.49,40.08-11.78s26.59,12,32.71,25.22c3.02,6.51,4.42,13.79,3.99,20.95-.46,7.6-2.73,15.66-7.06,21.99-4.34,6.35-11.28,9.79-18.03,13.01-3.8,1.81-7.57,3.44-11.75,4.13s-8.15.57-12.2.3c-2.07-.14-4.14-.34-6.21-.54-1.92-.19-1.91,2.82,0,3,8.67.84,17.61,1.54,25.9-1.72,3.91-1.54,7.75-3.43,11.46-5.41,3.51-1.86,6.91-4.04,9.75-6.83,5.75-5.66,8.84-13.71,10.32-21.5,1.49-7.83,1.06-15.91-1.44-23.49-4.85-14.78-16.71-26.21-31.56-30.75-14.88-4.55-31.42-1.48-43.86,7.81-6.51,4.86-12.11,11.39-15.68,18.71-3.8,7.79-4.17,16.34-1.97,24.66.54,2.05,1.24,4.05,2.03,6.02.71,1.77,3.62.99,2.89-.8h0Z"/>
        <path class="cls-2" d="M405.07,516.16c3.08-.5,6.13-1.13,9.15-1.92,2.73-.71,5.8-1.36,8.15-3.01.66-.46.97-1.31.54-2.05-.38-.66-1.39-1.01-2.05-.54-2.22,1.56-5.16,2.12-7.75,2.79-2.91.75-5.86,1.36-8.83,1.84-.8.13-1.25,1.12-1.05,1.85.23.85,1.04,1.18,1.85,1.05h0Z"/>
        <path class="cls-2" d="M397.8,573.16c4.76.4,9.6-.87,14.16-2.1,4.29-1.16,8.51-2.61,12.61-4.32,8.21-3.42,15.99-7.83,23.08-13.21,4.03-3.06,7.84-6.38,11.39-9.98,1.36-1.38-.76-3.5-2.12-2.12-12.09,12.26-27.26,21.35-43.79,26.18-4.9,1.43-10.19,2.99-15.33,2.55-1.92-.16-1.91,2.84,0,3h0Z"/>
        <path class="cls-2" d="M412.25,512.52c-.57-2.32-3.01-3.41-5.24-3.04-2.63.44-4.16,2.89-5.11,5.17-2.53,6.11-3.65,12.82-4.58,19.33s-1.51,13.17-1.66,19.79-.06,13.52.8,20.16c.37,2.86,2.04,5.53,5.3,5.01s4.74-3.84,5.53-6.79c.5-1.87-2.39-2.66-2.89-.8-.43,1.58-1.3,5.14-3.66,4.65-1.79-.37-1.51-4.41-1.62-5.7-.42-5.34-.58-10.7-.47-16.05.22-10.69,1.27-21.62,3.94-31.99.67-2.62,1.38-5.46,2.72-7.84.48-.84,1.18-1.82,2.2-2.01.75-.14,1.65.09,1.85.89.46,1.87,3.36,1.08,2.89-.8h0Z"/>
        <path class="cls-2" d="M330.52,506.2c1.57-2.13,2.38-4.71,4.06-6.77,1.45-1.77,3.27-3.17,5.28-4.24,4.51-2.41,9.71-2.98,14.74-2.46,6.02.62,11.81,2.75,17.45,4.82,5.85,2.14,11.65,4.4,17.41,6.77,6.61,2.72,13.16,5.6,19.64,8.61,1.74.81,3.26-1.78,1.51-2.59-12.07-5.61-24.36-10.74-36.85-15.35-10.89-4.01-23.03-8.15-34.27-2.96-2.5,1.16-4.85,2.8-6.68,4.87-2.08,2.35-3.04,5.29-4.88,7.78-1.15,1.55,1.45,3.05,2.59,1.51h0Z"/>
        <path class="cls-2" d="M334.87,553.99c14.67,11.39,31.36,20.66,49.8,24.04,5.33.98,10.74,1.46,16.16,1.38,1.93-.03,1.93-3.03,0-3-18.38.27-36.05-6.22-51.47-15.87-4.27-2.67-8.39-5.58-12.37-8.67-1.51-1.17-3.65.94-2.12,2.12h0Z"/>
        <path class="cls-2" d="M394.23,505.27c-8.36,16.89-12.46,35.81-11.78,54.65.19,5.34.78,10.66,1.71,15.92.34,1.9,3.23,1.09,2.89-.8-3.19-17.96-1.78-36.65,3.92-53.97,1.61-4.9,3.57-9.67,5.86-14.29.85-1.72-1.73-3.25-2.59-1.51h0Z"/>
        <path class="cls-2" d="M353.51,469.96c-3,6.46-5.82,13-8.48,19.61-.3.75.33,1.65,1.05,1.85.86.24,1.54-.29,1.85-1.05,2.56-6.37,5.29-12.67,8.18-18.89.34-.74.2-1.61-.54-2.05-.64-.39-1.71-.2-2.05.54h0Z"/>
        <path class="cls-2" d="M521.11,487.43c-1.93,23.96-3.74,47.94-5.43,71.92-.21,2.99-.42,5.97-.63,8.96-.19,2.75-.76,5.79,0,8.5s2.64,4.95,4.12,7.21c1.63,2.5,3.26,4.99,4.89,7.49,1.33,2.03,2.64,5.1,4.97,6.15,1.11.5,2.36.57,3.56.72,1.63.21,3.25.42,4.88.62,5.86.74,11.72,1.44,17.6,2,13.18,1.26,26.47,1.79,39.66.45,1.9-.19,1.92-3.2,0-3-11.4,1.16-22.87.93-34.28.03-5.72-.45-11.43-1.07-17.13-1.75-2.77-.33-5.53-.68-8.3-1.03-1.38-.18-2.9-.21-4.24-.59s-1.92-1.72-2.64-2.82c-1.54-2.36-3.08-4.71-4.61-7.07s-3.31-4.82-4.75-7.33-1.04-5.08-.85-7.82c.2-2.9.4-5.81.61-8.71.81-11.53,1.65-23.07,2.51-34.6.98-13.11,2-26.21,3.05-39.31.15-1.92-2.85-1.91-3,0h0Z"/>
        <path class="cls-2" d="M596.43,600.82c4.98-6.14,10.29-12.01,15.94-17.54,1.28-1.25,2.54-2.68,4.01-3.71,1.55-1.09,2.87-.78,4.08.65,2.12,2.52,2.39,6.12,2.47,9.28.4,16.52-1.32,33.14-3.51,49.5-1.25,9.4-2.72,18.77-4.19,28.13-.3,1.89,2.59,2.7,2.89.8,2.78-17.74,5.56-35.51,6.94-53.42.67-8.72,1.29-17.63.81-26.38-.19-3.51-.87-7.11-3.17-9.88-1.08-1.3-2.58-2.34-4.32-2.42s-3.29.88-4.6,1.97c-3.59,3.01-6.84,6.59-10.03,10.01s-6.42,7.15-9.45,10.88c-1.2,1.49.91,3.62,2.12,2.12h0Z"/>
        <path class="cls-2" d="M475.07,668.29c18.51.91,37.02,1.65,55.54,2.22,18.52.57,37.05.97,55.57,1.19,9.93.12,20.15.72,29.86-1.81,1.87-.49,1.08-3.38-.8-2.89-8.57,2.23-17.54,1.83-26.32,1.73-9.22-.1-18.44-.25-27.67-.44-18.36-.38-36.72-.92-55.06-1.63-10.38-.4-20.76-.86-31.13-1.37-1.93-.09-1.92,2.91,0,3h0Z"/>
        <path class="cls-2" d="M552.19,597.41c-4.4,1-7.56,4.41-10.11,7.92-2.83,3.9-5.03,8.27-6.51,12.85-1.59,4.93-2.16,10.06-2.5,15.2-.37,5.47-.58,10.95-.65,16.43-.07,6.22.05,12.44.36,18.65.09,1.92,3.1,1.93,3,0-.51-10.3-.5-20.63.04-30.92.27-5.02.5-10.11,1.66-15.02,1.04-4.45,2.78-8.71,5.16-12.62s5.58-8.52,10.36-9.6c1.88-.43,1.09-3.32-.8-2.89h0Z"/>
        <path class="cls-2" d="M573.26,600.19c-11.07,14.78-10.86,34.54-10.45,52.14.13,5.53.39,11.05.78,16.56.13,1.92,3.14,1.93,3,0-.66-9.36-.97-18.76-.86-28.14s.76-18.09,3.67-26.67c1.5-4.43,3.64-8.62,6.45-12.37,1.16-1.55-1.45-3.04-2.59-1.51h0Z"/>
        <path class="cls-2" d="M562.24,600.05c-5.41,6.74-8.2,15-9.49,23.46-1.44,9.39-1.67,19.06-1.83,28.55-.09,5.46.06,10.92.74,16.34.24,1.89,3.24,1.91,3,0-1.16-9.24-.74-18.56-.32-27.83.4-8.76.84-17.64,3.57-26.05,1.44-4.43,3.53-8.7,6.46-12.35,1.2-1.49-.91-3.63-2.12-2.12h0Z"/>
        <path class="cls-2" d="M528.43,485.8c3.24,2.51,4.26,7.25,5.44,10.97,1.4,4.43,2.57,8.92,3.58,13.45,2.05,9.16,3.46,18.45,4.87,27.73.29,1.9,3.18,1.09,2.89-.8-1.45-9.59-2.91-19.19-5.08-28.65-1.07-4.68-2.31-9.32-3.81-13.88-1.25-3.81-2.45-8.37-5.77-10.94-.65-.5-1.49-.62-2.12,0-.52.51-.64,1.63,0,2.12h0Z"/>
        <path class="cls-2" d="M519.04,547.85c8.68-2,17.08-5.08,25.02-9.12,1.72-.88.2-3.47-1.51-2.59-7.71,3.93-15.87,6.88-24.31,8.82-1.88.43-1.08,3.33.8,2.89h0Z"/>
        <path class="cls-2" d="M533.26,543.1c4.39,18.67,8.78,37.34,13.17,56.01.44,1.88,3.34,1.08,2.89-.8-4.39-18.67-8.78-37.34-13.17-56.01-.44-1.88-3.34-1.08-2.89.8h0Z"/>
        <path class="cls-2" d="M520.18,534.87c7.21-1.83,14.27-4.19,21.14-7.06.75-.31,1.27-.99,1.05-1.85-.19-.71-1.1-1.36-1.85-1.05-6.87,2.86-13.93,5.22-21.14,7.06-1.87.48-1.08,3.37.8,2.89h0Z"/>
        <path class="cls-2" d="M394.74,670.99c.81-6.59,1.95-13.14,3.41-19.62,1.28-5.68,2.62-11.47,4.82-16.88,2.02-4.97,5.08-9.5,9.73-12.33,4.89-2.98,10.72-4.15,16.35-4.71,11.28-1.13,24.43.95,31.29,11.02,3.32,4.89,5.12,10.81,6.61,16.47s2.56,11.94,2.98,18.03c.47,6.84.26,13.75-.72,20.53-.49,3.43-1.12,6.89-2.05,10.23-.86,3.09-2.59,5.49-5.85,6.21-1.88.42-1.09,3.31.8,2.89,2.71-.61,5.1-2.31,6.51-4.71,1.62-2.76,2.13-6.23,2.72-9.33,1.26-6.55,1.87-13.23,1.81-19.9s-.76-13.04-2.07-19.42-3.1-12.79-5.94-18.63c-2.66-5.48-6.83-9.88-12.25-12.69s-11.91-4.04-18.18-4.02-12.92.86-18.8,3.14-10.16,5.85-13.24,11.04c-3.5,5.91-5.18,12.8-6.76,19.42-1.84,7.66-3.21,15.43-4.17,23.25-.24,1.91,2.77,1.89,3,0h0Z"/>
        <path class="cls-2" d="M301.48,666.28c6.75,8.03,15.08,14.56,24.42,19.31s20.09,8.13,30.4,11.4,21.54,6.68,32.72,8.16c5.81.77,11.66.92,17.52.91s11.75-.04,17.63-.12c6.63-.09,13.26-.25,19.89-.59,6.09-.31,12.69-.22,18.32-2.86,1.75-.82.23-3.4-1.51-2.59-4.88,2.28-10.79,2.13-16.06,2.41-5.71.3-11.43.47-17.15.57s-11.44.13-17.16.16-11.49.08-17.21-.42c-11.04-.98-21.77-4.02-32.31-7.31-10.13-3.16-20.43-6.21-30.09-10.65-10.51-4.83-19.82-11.64-27.28-20.52-1.24-1.48-3.36.65-2.12,2.12h0Z"/>
        <path class="cls-2" d="M408.57,620.48c-12.15-.87-25.28,2.47-32.64,12.87-3.74,5.28-4.78,11.76-5.89,17.99-1.23,6.95-2.44,13.9-3.36,20.9-1.05,7.98-1.7,16.01-1.57,24.06.03,1.93,3.03,1.93,3,0-.22-13.56,1.81-26.99,4.14-40.31,1.08-6.17,1.71-12.91,4.67-18.52,2.45-4.66,6.51-8.24,11.18-10.59,6.29-3.18,13.52-3.88,20.46-3.38,1.93.14,1.92-2.86,0-3h0Z"/>
        <path class="cls-2" d="M391.66,670.91c-.87,6.55-2.05,13.19-1.91,19.82.12,5.41,1.71,11.61,7.11,14.03,1.75.79,3.27-1.8,1.51-2.59-5.11-2.3-5.71-8.41-5.62-13.35.1-6,1.12-11.98,1.91-17.92.11-.81-.77-1.49-1.5-1.5-.9,0-1.39.7-1.5,1.5h0Z"/>
        <path class="cls-2" d="M459.98,602.12c1.11-.89,2.59-1.24,3.97-1.38s3.03-.27,4.45-.07c1.5.22,1.57,1.34,1.69,2.65.16,1.77.2,3.54.13,5.31s-.25,3.6-.62,5.36c-.31,1.46-.96,2.23-2.42,2.6-1.17.3-2.75.57-3.94.3-1.28-.28-1.51-1.86-1.72-2.95-.4-2.06-.67-4.15-.85-6.24-.08-.99-.14-1.98-.18-2.97-.02-.56-.04-1.12-.04-1.67,0-.19,0-.37,0-.56,0-.25.16-.87-.16-.6l-1.46.39.17.03c.8.13,1.61-.21,1.85-1.05.2-.71-.24-1.72-1.05-1.85-2.98-.47-2.37,3.48-2.3,5.32.1,2.49.34,4.97.71,7.44.3,2.04.51,4.4,1.84,6.08s3.57,1.79,5.62,1.6c1.89-.18,3.9-.56,5.3-1.96,1.62-1.62,1.77-4.18,2.02-6.33.28-2.43.34-4.88.18-7.32-.14-2.1-.24-4.61-2.26-5.83-1.81-1.09-4.33-.86-6.34-.72-2.47.17-4.75.74-6.71,2.31-.64.51-.52,1.59,0,2.12.62.63,1.49.5,2.12,0h0Z"/>
        <path class="cls-2" d="M468.98,617.68c.06,6.63.08,13.38-2.26,19.68-.67,1.81,2.23,2.6,2.89.8,2.42-6.54,2.42-13.6,2.37-20.48-.02-1.93-3.02-1.93-3,0h0Z"/>
        <path class="cls-2" d="M460.3,617.94c.12,2.41.07,4.82-.15,7.23-.07.78.74,1.53,1.5,1.5.88-.04,1.42-.66,1.5-1.5.22-2.4.28-4.82.15-7.23-.04-.78-.66-1.54-1.5-1.5-.78.03-1.54.66-1.5,1.5h0Z"/>
        <path class="cls-2" d="M471.9,602.54c9.25-2.04,18.27-4.97,27.04-8.53,4.33-1.76,8.61-3.65,12.83-5.64,3.16-1.49,8.25-2.93,8.23-7.28,0-1.93-3.01-1.93-3,0,0,1.75-1.96,2.39-3.21,3-1.93.94-3.86,1.86-5.81,2.75-3.93,1.81-7.9,3.53-11.93,5.11-8.11,3.19-16.43,5.81-24.94,7.69-1.88.42-1.09,3.31.8,2.89h0Z"/>
        <path class="cls-2" d="M471.38,616.05c14.81-3.27,29.18-8.52,42.61-15.58,3.82-2.01,7.56-4.17,11.22-6.47,1.63-1.02.13-3.62-1.51-2.59-12.7,7.97-26.43,14.23-40.79,18.55-4.06,1.22-8.17,2.28-12.32,3.2-1.88.42-1.09,3.31.8,2.89h0Z"/>
        <path class="cls-2" d="M327.08,588.21c15.74,7.64,32.74,12.19,50.02,14.7,17.34,2.51,34.89,3.11,52.39,3,9.67-.06,19.39-.26,29.02-1.31,1.9-.21,1.92-3.21,0-3-8.41.92-16.88,1.17-25.34,1.28s-17.19.05-25.78-.29c-17.33-.69-34.69-2.56-51.5-6.99-9.39-2.47-18.56-5.74-27.29-9.98-1.73-.84-3.25,1.75-1.51,2.59h0Z"/>
        <path class="cls-2" d="M440.56,617.52c6.03-.18,12.07-.41,18.1-.64,1.92-.07,1.93-3.07,0-3-6.03.23-12.07.46-18.1.64-1.93.06-1.93,3.06,0,3h0Z"/>
        <path class="cls-2" d="M326.75,601.56c23.81,9.93,49.51,14.5,75.18,15.81,7.76.4,15.54.5,23.31.45,1.93-.01,1.93-3.01,0-3-26.04.18-52.15-1.79-77.27-9-6.94-1.99-13.76-4.37-20.42-7.15-.75-.31-1.64.34-1.85,1.05-.25.86.3,1.53,1.05,1.85h0Z"/>
        <path class="cls-2" d="M477.23,543.64c0,9.73-.41,19.47-1.22,29.17-.75,8.9-1.28,18.41-5.35,26.54-.86,1.72,1.72,3.24,2.59,1.51,4.19-8.35,4.88-17.9,5.68-27.07.87-10.03,1.3-20.09,1.31-30.15,0-1.93-3-1.93-3,0h0Z"/>
        <path class="cls-2" d="M462.35,542.47c.17,8.15-.56,16.28-1.5,24.37s-1.65,15.46-3.45,23c-.99,4.15-2.33,8.2-4.25,12.02-.87,1.72,1.72,3.24,2.59,1.51,3.5-6.96,5.19-14.57,6.31-22.23,1.17-8.05,2.15-16.17,2.8-24.27.39-4.79.59-9.59.49-14.4-.04-1.93-3.04-1.93-3,0h0Z"/>
        <path class="cls-2" d="M469.32,560.66c-.07,0-.14,0-.21,0-.31,0,.12.03-.06,0-.07-.02-.13-.03-.2-.05-.03,0-.23-.08-.11-.03s-.07-.04-.1-.05c-.08-.04-.15-.09-.22-.13-.03-.02-.16-.13-.02-.01-.07-.06-.13-.12-.19-.18s-.12-.13-.18-.19c.03.04.1.16-.02-.02-.08-.12-.15-.24-.21-.36-.1-.19-.03-.07-.01-.02-.02-.07-.05-.14-.07-.22-.06-.22-.08-.31-.08-.42-.03-.64.11-1.21.39-1.74.18-.33.29-.48.46-.67.1-.11.22-.22.33-.32.15-.14.08-.07.04-.04.09-.07.19-.13.28-.19.33-.2.31-.2.65-.28.07-.02.14-.03.22-.05-.2.03.03,0,.08,0,.07,0,.15,0,.22,0,.12,0-.11-.04.09.01.09.02.18.04.27.07.02,0,.24.09.12.04s.09.05.12.06c.07.04.13.07.19.11.24.15.4.3.67.6.05.06.1.12.15.17.01.02.13.16.04.04.09.12.18.25.27.38.09.14.18.28.26.43.04.07.08.15.12.22,0-.01.16.33.09.18.06.15.12.31.16.47.03.1.05.2.07.3.04.2,0-.13,0,.07.01.16.01.32,0,.47-.01.19.07-.24-.02.09-.02.09-.04.18-.07.27,0,.02-.08.24-.04.13.03-.08-.09.18-.11.22-.04.06-.08.13-.12.19-.03.05-.16.19-.06.08-.3.34-.36.4-.75.57.13-.06-.05.01-.06.02-.12.03-.23.07-.35.09-.02,0-.22.03-.06.01-.12.01-.24.01-.36.01-.08,0-.16,0-.24-.02.15.02-.06-.02-.11-.03-.1-.02-.19-.05-.29-.08-.2-.07.03.02-.17-.08-.54-.28-1.22-.14-1.54.4-.3.51-.14,1.26.4,1.54,1.96,1.02,4.35.44,5.55-1.43s.55-4.01-.65-5.63c-.63-.85-1.38-1.57-2.38-1.97-.88-.35-1.88-.34-2.76,0-1.95.77-3.25,2.71-3.39,4.79-.15,2.25,1.59,4.48,3.93,4.45.59,0,1.15-.51,1.12-1.12s-.49-1.13-1.12-1.12h0Z"/>
        <path class="cls-2" d="M465.87,591c-.07.02-.15.05-.23.07.18-.03-.05,0-.1-.01-.18-.01.14.04-.04-.01-.04-.01-.26-.1-.11-.03-.31-.14-.48-.3-.71-.61-.32-.42-.51-1.11-.53-1.72-.06-1.39.54-2.84,1.67-3.54.33-.2.47-.26.82-.34.23-.05.55-.04.78.02.07.02.4.15.24.07.13.06.25.14.37.21.17.1.08.05.03.01.07.05.14.12.2.18.05.05.1.1.15.15.03.03.21.24.16.18.35.43.61,1.01.77,1.55.09.31.17.63.21.96.03.23-.02-.35.01.13,0,.1.02.2.02.3.01.24.02.5-.02.75-.02.11-.07.27-.12.39-.03.07-.07.13-.11.19-.1.18.07-.04-.09.12-.05.05-.1.1-.15.15-.15.15.08-.03-.11.09-.16.1-.31.19-.48.27.04-.02.17-.06-.05.02-.09.03-.18.06-.27.09-.19.06-.37.1-.57.14-.1.02-.19.04-.29.05l-.12.02c.09-.01.09-.01,0,0-.21.02-.42.04-.63.05-.61.03-1.12.5-1.12,1.12,0,.59.52,1.15,1.12,1.12,1.96-.09,4.17-.69,4.97-2.68.43-1.07.32-2.32.07-3.43-.21-.9-.58-1.81-1.13-2.56-.59-.8-1.33-1.42-2.27-1.74-1.07-.37-2.22-.18-3.21.31-2,.98-3.13,3.3-3.12,5.47,0,1.28.37,2.53,1.2,3.52s2.12,1.58,3.39,1.17c.58-.19.95-.78.79-1.38-.16-.57-.8-.97-1.38-.79h0Z"/>
        <path class="cls-2" d="M486.78,456.1c-1.23-9.46,1.4-18.8,4.29-27.72,2.34-7.21,5.35-14.93,11.56-19.7,1.56-1.2,3.35-2.23,5.37-2.19,1.81.04,3.57.88,4.94,2.03,3.24,2.73,4.32,7.04,4.97,11.05,1.52,9.41,2.03,19.09,1.7,28.61-.1,2.75-.27,5.5-.54,8.24-.21,2.13-.3,4.56-1.45,6.43-1.25,2.04-4,2.95-6.17,3.62-2.54.78-5.14,1.14-7.79,1.13-1.93,0-1.93,2.99,0,3,4.75.02,10.36-.98,14.29-3.83s3.96-8.13,4.31-12.53c.86-10.75.4-21.58-1-32.26-.6-4.59-1.29-9.49-4.11-13.32-2.47-3.36-6.58-5.77-10.85-5.04s-7.82,4.34-10.33,7.6c-2.67,3.47-4.54,7.44-6.1,11.51-1.93,5.05-3.53,10.29-4.76,15.55-1.36,5.83-2.11,11.85-1.33,17.81.24,1.89,3.25,1.91,3,0h0Z"/>
        <path class="cls-2" d="M486.34,448.72c6.13-1.88,12.6-.49,18.17,2.43,2.69,1.41,5.21,3.12,7.6,4.99,2.21,1.73,4.6,3.65,5.41,6.45.54,1.85,3.43,1.06,2.89-.8-.91-3.13-3.2-5.4-5.68-7.38-2.74-2.19-5.61-4.23-8.72-5.86-6.26-3.28-13.59-4.85-20.48-2.73-1.84.56-1.06,3.46.8,2.89h0Z"/>
        <path class="cls-2" d="M507.2,393.31c.51-.98,1.08-1.92,1.72-2.81.07-.1.15-.21.23-.31.04-.05.08-.1.11-.15.03-.04.06-.08.09-.11l-.12.15c.18-.2.34-.42.51-.63.36-.43.74-.84,1.12-1.24.55-.56.6-1.57,0-2.12s-1.54-.6-2.12,0c-1.64,1.69-3.06,3.63-4.14,5.72-.36.7-.2,1.66.54,2.05.69.36,1.67.21,2.05-.54h0Z"/>
        <path class="cls-2" d="M417.59,398.69c10.62-11.33,24.23-19.56,39.21-23.67,3.72-1.02,2.14-6.81-1.6-5.79-15.93,4.37-30.56,13.17-41.85,25.22-2.64,2.82,1.59,7.07,4.24,4.24h0Z"/>
        <path class="cls-2" d="M403.7,342.64c-4.32.26-6.78-4.46-5.98-8.26.93-4.4,4.65-8.02,8.59-9.91s8.73-1.82,11.87,1.25c1.72,1.67,2.56,4.09,2.67,6.46.12,2.56-.73,4.63-2.66,6.3-4.03,3.49-9.63,4.9-14.87,4.37-1.92-.19-1.91,2.81,0,3,5.93.6,12.07-1.19,16.68-4.99,2.42-2,3.77-4.67,3.86-7.83.08-2.93-.79-5.99-2.58-8.32-3.43-4.45-9.74-5.45-14.81-3.55s-10.15,6.5-11.55,12.04c-.74,2.92-.36,6.03,1.38,8.52s4.38,4.1,7.4,3.92c1.92-.11,1.93-3.11,0-3h0Z"/>
        <path class="cls-2" d="M548.84,337.5c-3.55-.8-9.35-2.52-9.76-6.87-.36-3.77,1.8-7.65,4.97-9.63s7.37-1.98,10.67-.14c1.81,1.01,3.19,2.49,4.16,4.32s1.7,4.24,1.44,6.31c-.3,2.34-2.41,3.87-4.39,4.82-2.25,1.08-4.88,1.48-7.35,1.12-.81-.12-1.6.2-1.85,1.05-.2.7.25,1.73,1.05,1.85,5.14.74,11.6-.82,14.49-5.54,1.5-2.44,1.19-5.5.41-8.13s-2.2-5.09-4.29-6.86c-3.8-3.22-9.32-4.28-13.97-2.35s-7.91,6.47-8.35,11.46c-.27,3.04.78,5.76,3.19,7.66s5.7,3.14,8.77,3.83c1.88.43,2.68-2.47.8-2.89h0Z"/>
        <path class="cls-2" d="M330.1,360.54c9.12,2.1,18.49,2.04,27.6-.04s17.78-6.02,25.94-10.56c4.67-2.6,9.19-5.55,12.95-9.37,1.36-1.38-.76-3.5-2.12-2.12-3.23,3.28-7.02,5.86-11,8.14s-7.99,4.34-12.15,6.16c-7.97,3.5-16.51,5.97-25.24,6.33-5.11.21-10.2-.29-15.19-1.44-1.88-.43-2.68,2.46-.8,2.89h0Z"/>
        <path class="cls-2" d="M420.38,323.4c.97-1.42,1.83-2.91,2.57-4.46.18-.37.26-.75.15-1.16-.1-.35-.36-.73-.69-.9-.67-.35-1.69-.22-2.05.54-.74,1.55-1.6,3.04-2.57,4.46-.21.31-.25.81-.15,1.16s.36.73.69.9c.76.4,1.58.15,2.05-.54h0Z"/>
        <path class="cls-2" d="M407.36,307.3c17.56,18.1,40.87,29.28,64.85,36.17,13.09,3.76,26.48,6.35,39.92,8.48s27.6,3.83,41.51,4.42c15.64.66,31.34-.07,46.77-2.78,1.9-.33,1.09-3.23-.8-2.89-27.15,4.78-55,3.12-82.12-.93-25.84-3.86-52.07-9.23-75.54-21.14-11.97-6.07-23.1-13.79-32.47-23.44-1.35-1.39-3.47.73-2.12,2.12h0Z"/>
        <path class="cls-2" d="M395.07,224.06c-9.99-9.27-25.66-4.08-35.79,2.1-12.69,7.74-22.03,19.48-31.47,30.69-4.62,5.48-9.45,10.74-14.44,15.88-4.52,4.66-9.08,9.3-13.22,14.31s-7.86,10.32-10.51,16.23c-3.02,6.75-4.26,13.91-4.76,21.25-.58,8.62-.95,17.34-.7,25.98s1.31,17.06,4.13,25.13c.63,1.81,3.53,1.03,2.89-.8-4.9-14.04-4.3-29.08-3.66-43.71.32-7.41.68-14.9,3.01-22,1.94-5.89,5.12-11.3,8.8-16.26,7.69-10.36,17.51-18.9,26-28.56,9.41-10.71,17.91-22.46,29.25-31.28,5.8-4.51,12.44-8.33,19.62-10.08,6.28-1.53,13.73-1.39,18.72,3.24,1.41,1.31,3.54-.8,2.12-2.12h0Z"/>
        <path class="cls-2" d="M394.59,227.2c16.24-11.6,35.66-17.36,55.57-17.09,10.61.14,21.29,1.33,31.73,3.23s20.3,4.57,29.92,8.5c16.96,6.93,32.54,18,43.08,33.15,2.82,4.06,5.42,8.3,8.78,11.95s7.22,6.54,10.95,9.67c6.6,5.53,12.03,12.05,16.08,19.66,7.95,14.94,10.38,32.46,8.8,49.18-.2,2.07-.46,4.12-.79,6.17-.3,1.89,2.59,2.7,2.89.8,2.72-17.11,1.44-35.17-5.29-51.25-3.29-7.86-7.85-15.17-13.76-21.33-3.35-3.49-7.17-6.43-10.86-9.53-3.97-3.33-7.41-6.96-10.37-11.23-2.8-4.02-5.45-8.12-8.6-11.89s-6.3-6.91-9.83-9.97c-7.03-6.1-14.93-11.17-23.31-15.2-19.08-9.19-40.35-13.18-61.35-14.59-10.57-.71-21.15-.33-31.5,2.04-9.66,2.21-19.01,5.98-27.5,11.09-2.1,1.26-4.14,2.61-6.13,4.04-1.56,1.11-.06,3.72,1.51,2.59h0Z"/>
        <path class="cls-2" d="M576.73,239.51c-4.32-1.68-5.6-7.07-3.96-11.06,1.93-4.71,6.66-7.32,11.43-8.32,2.4-.51,5.4-1.02,7.68.14,1.82.93,3.09,2.73,3.86,4.59.92,2.24,1.38,4.95.8,7.32s-2.34,4.56-4.29,6.09c-4.67,3.67-11.12,3.99-16.22,1.05-1.68-.97-3.19,1.63-1.51,2.59,5.65,3.26,12.78,3.23,18.28-.36,2.61-1.7,4.89-4.11,6.1-6.99s1.06-6.45.1-9.49c-.82-2.58-2.26-5.03-4.46-6.66-2.62-1.95-5.75-1.96-8.86-1.55-6.1.81-12.3,3.67-15.18,9.41-2.97,5.93-1.04,13.61,5.45,16.13,1.8.7,2.58-2.2.8-2.89h0Z"/>
        <path class="cls-2" d="M585.21,267.49c-.67-.89-1.05-1.89-1.1-2.86-.06-1.05.12-1.97.6-2.84.55-.99,1.45-1.77,2.37-2.41.5-.35,1.02-.67,1.61-.83.54-.15,1.02-.11,1.56.06,2.25.68,3.21,3.29,3.63,5.48.21,1.11.23,2.23-.6,3.03-.75.72-1.53,1.05-2.5,1.28-2.03.48-4.38-.1-5.9-1.65-1.35-1.38-3.48.74-2.12,2.12,2.13,2.17,5.23,3.01,8.19,2.54,1.48-.24,2.86-.87,4.02-1.81,1.46-1.17,2.13-2.89,2.01-4.74-.22-3.27-1.65-7.08-4.74-8.65-1.69-.86-3.54-.97-5.28-.21-1.51.66-2.97,1.82-4.02,3.09-2.27,2.77-2.52,7-.34,9.91.48.65,1.3.98,2.05.54.64-.37,1.03-1.4.54-2.05h0Z"/>
        <path class="cls-2" d="M615.38,232.01c-.87-.44-1.4-1.01-1.83-1.88-.32-.65-.46-1.64-.33-2.28.23-1.1.89-2.19,1.58-3.06.62-.79,1.41-1.19,2.38-1.35.91-.14,1.98-.01,2.93.23,1.09.28,2.02.66,2.62,1.66.99,1.66,1.52,4.18.22,5.8-1.74,2.16-4.83,1.87-7.19,1.06-.77-.26-1.64.3-1.85,1.05-.23.82.28,1.58,1.05,1.85,3.24,1.11,7.01,1.07,9.65-1.35s2.47-6.2,1.08-9.19c-.75-1.61-1.94-2.74-3.59-3.38-1.39-.54-2.97-.83-4.47-.76-1.6.08-3.13.57-4.34,1.64s-2.16,2.69-2.72,4.19c-1.16,3.11.36,6.88,3.3,8.38.72.37,1.63.19,2.05-.54.39-.67.19-1.68-.54-2.05h0Z"/>
        <path class="cls-2" d="M611.9,364.93c1.21-3.22,3.27-6.09,5.93-8.27,2.89-2.36,6.48-3.6,9.61-5.59,5.66-3.6,9.87-9.16,11.91-15.53.59-1.84-2.3-2.63-2.89-.8-2.11,6.56-6.73,11.81-12.79,15.03-3.23,1.72-6.48,3.24-9.15,5.81-2.48,2.39-4.32,5.32-5.53,8.54-.68,1.81,2.22,2.59,2.89.8h0Z"/>
        <path class="cls-2" d="M625.2,315.57c.85-.34,1.74-.57,2.65-.7l-.4.05c.65-.09,1.31-.12,1.97-.1.78.03,1.54-.71,1.5-1.5-.04-.84-.66-1.47-1.5-1.5-1.7-.06-3.44.22-5.02.85-.38.15-.68.33-.9.69-.19.32-.27.8-.15,1.16s.34.71.69.9.79.3,1.16.15h0Z"/>
        <path class="cls-2" d="M626.99,305.58l4.31,1.33c.75.23,1.67-.27,1.85-1.05.19-.81-.24-1.6-1.05-1.85l-4.31-1.33c-.75-.23-1.67.27-1.85,1.05-.19.81.24,1.6,1.05,1.85h0Z"/>
        <path class="cls-2" d="M634.26,298.43c.63.62,1.22,1.28,1.77,1.98l-.23-.3c.31.4.6.8.87,1.22.22.33.51.58.9.69.36.1.84.05,1.16-.15s.6-.51.69-.9.07-.82-.15-1.16c-.83-1.26-1.8-2.45-2.87-3.51-.28-.27-.67-.44-1.06-.44-.37,0-.81.16-1.06.44s-.46.66-.44,1.06.15.78.44,1.06h0Z"/>
        <path class="cls-2" d="M647.87,300.22c.97-1.39,1.86-2.83,2.66-4.32.37-.69.19-1.66-.54-2.05s-1.65-.2-2.05.54c-.8,1.49-1.69,2.93-2.66,4.32-.21.3-.25.81-.15,1.16s.36.73.69.9c.35.18.77.28,1.16.15s.66-.35.9-.69h0Z"/>
        <path class="cls-2" d="M653.77,305.72c.8.12,1.6.19,2.42.12s1.61-.21,2.37-.46c.37-.12.7-.35.9-.69.19-.32.27-.8.15-1.16-.24-.74-1.05-1.31-1.85-1.05-.51.17-1.04.29-1.57.37l.4-.05c-.76.1-1.52.1-2.27,0l.4.05s-.1-.01-.15-.02c-.41-.06-.78-.07-1.16.15-.31.18-.61.54-.69.9-.09.38-.07.81.15,1.16.2.31.52.63.9.69h0Z"/>
        <path class="cls-2" d="M634.28,324.55c.31-.62.67-1.2,1.1-1.75l-.23.3c.47-.61,1-1.16,1.59-1.65.28-.23.44-.71.44-1.06,0-.37-.16-.81-.44-1.06s-.66-.46-1.06-.44l-.4.05c-.25.07-.47.2-.66.39-1.21,1.01-2.22,2.3-2.92,3.71-.18.36-.26.75-.15,1.16.1.35.36.73.69.9.35.18.77.28,1.16.15.36-.12.72-.34.9-.69h0Z"/>
        <path class="cls-2" d="M644.87,327.76c.21-1.57.57-3.11,1.06-4.62.24-.75-.28-1.67-1.05-1.85-.82-.19-1.58.25-1.85,1.05-.49,1.5-.85,3.05-1.06,4.62-.06.42-.07.77.15,1.16.18.31.54.61.9.69.38.09.81.07,1.16-.15.3-.2.64-.52.69-.9h0Z"/>
        <path class="cls-2" d="M651.66,322.11c1.21,1.15,2.49,2.21,3.83,3.21.29.22.82.24,1.16.15s.73-.36.9-.69c.18-.35.28-.77.15-1.16l-.15-.36c-.13-.23-.31-.4-.54-.54-.16-.12-.32-.24-.47-.36l.3.23c-1.06-.82-2.08-1.7-3.05-2.62-.28-.27-.67-.44-1.06-.44-.37,0-.81.16-1.06.44s-.46.66-.44,1.06.15.78.44,1.06h0Z"/>
        <path class="cls-2" d="M657.52,314.58l4.62.58c.35.04.82-.2,1.06-.44.26-.26.46-.69.44-1.06s-.14-.79-.44-1.06l-.3-.23c-.23-.14-.49-.2-.76-.2l-4.62-.58c-.35-.04-.82.2-1.06.44-.26.26-.46.69-.44,1.06s.14.79.44,1.06l.3.23c.23.14.49.2.76.2h0Z"/>
        <path class="cls-2" d="M534.86,372.6c12.46,1.88,23.95,7.86,32.55,17.09,2.64,2.83,6.87-1.42,4.24-4.24-9.21-9.9-21.81-16.62-35.19-18.63-1.6-.24-3.23.4-3.69,2.1-.39,1.42.48,3.45,2.1,3.69h0Z"/>
        <path class="cls-2" d="M393.87,622.19c-8.02,5.51-12.91,14.29-15.57,23.48-1.6,5.52-2.45,11.22-3.16,16.91s-1.45,11.67-2.27,17.49c-.93,6.59-1.59,13.21-.35,19.8.36,1.89,3.25,1.09,2.89-.8-1.06-5.62-.57-11.38.18-17,.74-5.47,1.52-10.93,2.17-16.41,1.2-10.12,2.65-20.53,7.67-29.57,2.47-4.43,5.74-8.42,9.94-11.31,1.58-1.09.08-3.69-1.51-2.59h0Z"/>
        <path class="cls-2" d="M205.24,621.7c1.26,1.61,2.18,3.51,2.71,5.48.14.5.25,1.01.34,1.53.08.43.24,1.04.15,1.47-.12.6-1.19,1.17-1.71,1.45-.79.44-1.69.73-2.6.82-.42.04-.99-.03-1.34.01.07,0-.15-.03-.15-.04s.21.18.21.18c0,0-.08-.41-.1-.52-.28-1.73-.02-3.54.57-5.2.66-1.83,1.89-3.55,3.46-4.71.65-.48.98-1.3.54-2.05-.37-.64-1.4-1.02-2.05-.54-4.15,3.07-6.39,8.38-5.38,13.5.64,3.23,4.84,2.64,7.12,1.72,1.26-.51,2.54-1.23,3.45-2.26,1.16-1.31,1.01-2.78.75-4.39-.51-3.15-1.9-6.05-3.86-8.55-.5-.64-1.6-.52-2.12,0-.63.63-.5,1.48,0,2.12h0Z"/>
      </g>
    </g>
    <g>
      <text class="cls-21" transform="translate(151.25 147.06)"><tspan x="0" y="0">PAUSED</tspan></text>
      <g>
        <text class="cls-20" transform="translate(151.25 152.06)"><tspan x="0" y="0">PAUSED</tspan></text>
        <text class="cls-20" transform="translate(151.25 151.06)"><tspan x="0" y="0">PAUSED</tspan></text>
        <text class="cls-20" transform="translate(151.25 150.06)"><tspan x="0" y="0">PAUSED</tspan></text>
        <text class="cls-20" transform="translate(151.25 149.06)"><tspan x="0" y="0">PAUSED</tspan></text>
        <text class="cls-20" transform="translate(151.25 148.06)"><tspan x="0" y="0">PAUSED</tspan></text>
        <text class="cls-20" transform="translate(151.25 147.06)"><tspan x="0" y="0">PAUSED</tspan></text>
      </g>
      <text class="cls-19" transform="translate(151.25 147.06)"><tspan x="0" y="0">PAUSED</tspan></text>
    </g>
    <g>
      <g>
        <rect class="cls-9" x="122.13" y="743.29" width="185.28" height="171.47" rx="17.06" ry="17.06"/>
        <path class="cls-2" d="M290.35,744.79c8.58,0,15.56,6.98,15.56,15.56v137.35c0,8.58-6.98,15.56-15.56,15.56h-151.16c-8.58,0-15.56-6.98-15.56-15.56v-137.35c0-8.58,6.98-15.56,15.56-15.56h151.16M290.35,741.79h-151.16c-10.25,0-18.56,8.31-18.56,18.56v137.35c0,10.25,8.31,18.56,18.56,18.56h151.16c10.25,0,18.56-8.31,18.56-18.56v-137.35c0-10.25-8.31-18.56-18.56-18.56h0Z"/>
      </g>
      <rect class="cls-11" x="125.01" y="744.92" width="180.1" height="152.59" rx="15.87" ry="15.87"/>
      <path class="cls-4" d="M243.21,770.01c-11.25-5.47-23.38-7.04-34.92-5.14-.61.04-1.22.15-1.82.33-7.88,1.55-15.44,4.73-22.21,9.39l-2.04,1.34c-3.89,2.27-5.57,6.82-3.77,10.06l1.32,1.72c3.19,3.57,8.25,5.37,13.36,2.9l12-5.1c9.55-3.33,20.1-2.91,29.68,1.75,19.7,9.59,27.86,33.42,18.22,53.22-9.64,19.8-33.43,28.08-53.13,18.49-10.94-5.33-18.31-15.04-21.06-26.02l6.87,6.53c3.21,3.05,8.1,2.79,10.92-.58l.74-.88c2.83-3.37,2.52-8.57-.69-11.61l-24.96-23.72c-.93-.89-2.01-1.48-3.14-1.82-3.39-1.54-7.41-.36-9.47,3l-18.02,29.45c-2.32,3.78-1.28,8.89,2.31,11.4l.94.66c3.59,2.51,8.38,1.48,10.7-2.31l4.53-7.4c3.66,17.15,14.87,32.49,31.83,40.74,29.31,14.27,64.67,2.01,78.97-27.37,14.3-29.39,2.14-64.77-27.17-79.04Z"/>
    </g>
    <g>
      <g>
        <rect class="cls-9" x="340.36" y="743.62" width="185.28" height="171.47" rx="17.06" ry="17.06"/>
        <path class="cls-2" d="M508.58,745.12c8.58,0,15.56,6.98,15.56,15.56v137.35c0,8.58-6.98,15.56-15.56,15.56h-151.16c-8.58,0-15.56-6.98-15.56-15.56v-137.35c0-8.58,6.98-15.56,15.56-15.56h151.16M508.58,742.12h-151.16c-10.25,0-18.56,8.31-18.56,18.56v137.35c0,10.25,8.31,18.56,18.56,18.56h151.16c10.25,0,18.56-8.31,18.56-18.56v-137.35c0-10.25-8.31-18.56-18.56-18.56h0Z"/>
      </g>
      <rect class="cls-11" x="343.24" y="745.25" width="180.1" height="152.59" rx="15.87" ry="15.87"/>
      <path class="cls-4" d="M393.77,781.65v87.77c0,7.88,8.48,12.85,15.36,9l78.32-43.88c7.03-3.94,7.03-14.06,0-18l-78.32-43.88c-6.88-3.85-15.36,1.12-15.36,9Z"/>
    </g>
    <g>
      <g>
        <g>
          <rect class="cls-9" x="554.73" y="743.52" width="185.28" height="171.47" rx="17.06" ry="17.06"/>
          <path class="cls-2" d="M722.95,745.02c8.58,0,15.56,6.98,15.56,15.56v137.35c0,8.58-6.98,15.56-15.56,15.56h-151.16c-8.58,0-15.56-6.98-15.56-15.56v-137.35c0-8.58,6.98-15.56,15.56-15.56h151.16M722.95,742.02h-151.16c-10.25,0-18.56,8.31-18.56,18.56v137.35c0,10.25,8.31,18.56,18.56,18.56h151.16c10.25,0,18.56-8.31,18.56-18.56v-137.35c0-10.25-8.31-18.56-18.56-18.56h0Z"/>
        </g>
        <rect class="cls-11" x="557.61" y="745.15" width="180.1" height="152.59" rx="15.87" ry="15.87"/>
      </g>
      <g>
        <path class="cls-4" d="M611.86,858.67v-67.66c0-4.58,3.33-8.3,7.44-8.3h65.25c4.11,0,7.44-3.72,7.44-8.3v-1.28c0-4.58-3.33-8.3-7.44-8.3h-81.28c-4.11,0-7.44,3.72-7.44,8.3v102.14c0,4.58,3.33,8.3,7.44,8.3h81.28c4.11,0,7.44-3.72,7.44-8.3h0c0-4.58-3.33-8.3-7.44-8.3h-65.25c-4.11,0-7.44-3.72-7.44-8.3Z"/>
        <path class="cls-4" d="M688.93,857.75l27.43-26.79c2.24-2.19,2.79-5.48,1.63-8.22-.4-1.21-1.09-2.33-2.08-3.26l-27.25-25.63c-3.13-2.95-8.04-2.77-10.96.4-2.92,3.17-2.74,8.13.4,11.08l11.71,11.02h-44.28c-3.67,0-6.65,3.41-6.65,7.62v3.25c0,4.21,2.98,7.62,6.65,7.62h45.88l-12.61,12.32c-2.9,2.83-2.98,7.5-.18,10.43s7.42,3.01,10.31.18Z"/>
      </g>
    </g>
  </g>
</svg>